<?xml version="1.0" encoding="utf-8" standalone="no"?>
<!DOCTYPE svg PUBLIC "-//W3C//DTD SVG 1.1//EN"
  "http://www.w3.org/Graphics/SVG/1.1/DTD/svg11.dtd">
<svg xmlns:xlink="http://www.w3.org/1999/xlink" width="398.560625pt" height="325.986375pt" viewBox="0 0 398.560625 325.986375" xmlns="http://www.w3.org/2000/svg" version="1.1">
 <metadata>
  <rdf:RDF xmlns:dc="http://purl.org/dc/elements/1.1/" xmlns:cc="http://creativecommons.org/ns#" xmlns:rdf="http://www.w3.org/1999/02/22-rdf-syntax-ns#">
   <cc:Work>
    <dc:type rdf:resource="http://purl.org/dc/dcmitype/StillImage"/>
    <dc:date>2025-04-07T20:46:07.646343</dc:date>
    <dc:format>image/svg+xml</dc:format>
    <dc:creator>
     <cc:Agent>
      <dc:title>Matplotlib v3.7.2, https://matplotlib.org/</dc:title>
     </cc:Agent>
    </dc:creator>
   </cc:Work>
  </rdf:RDF>
 </metadata>
 <defs>
  <style type="text/css">*{stroke-linejoin: round; stroke-linecap: butt}</style>
 </defs>
 <g id="figure_1">
  <g id="patch_1">
   <path d="M 0 325.986375 
L 398.560625 325.986375 
L 398.560625 0 
L 0 0 
z
" style="fill: #ffffff"/>
  </g>
  <g id="axes_1">
   <g id="patch_2">
    <path d="M 34.240625 288.430125 
L 391.360625 288.430125 
L 391.360625 22.318125 
L 34.240625 22.318125 
z
" style="fill: #ffffff"/>
   </g>
   <g id="matplotlib.axis_1">
    <g id="xtick_1">
     <g id="line2d_1">
      <path d="M 50.473352 288.430125 
L 50.473352 22.318125 
" clip-path="url(#p96d544de65)" style="fill: none; stroke: #b0b0b0; stroke-width: 0.8; stroke-linecap: square"/>
     </g>
     <g id="line2d_2">
      <defs>
       <path id="m4c204c602c" d="M 0 0 
L 0 3.5 
" style="stroke: #000000; stroke-width: 0.8"/>
      </defs>
      <g>
       <use xlink:href="#m4c204c602c" x="50.473352" y="288.430125" style="stroke: #000000; stroke-width: 0.8"/>
      </g>
     </g>
     <g id="text_1">
      <!-- 0 -->
      <g transform="translate(47.292102 303.028562) scale(0.1 -0.1)">
       <defs>
        <path id="DejaVuSans-30" d="M 2034 4250 
Q 1547 4250 1301 3770 
Q 1056 3291 1056 2328 
Q 1056 1369 1301 889 
Q 1547 409 2034 409 
Q 2525 409 2770 889 
Q 3016 1369 3016 2328 
Q 3016 3291 2770 3770 
Q 2525 4250 2034 4250 
z
M 2034 4750 
Q 2819 4750 3233 4129 
Q 3647 3509 3647 2328 
Q 3647 1150 3233 529 
Q 2819 -91 2034 -91 
Q 1250 -91 836 529 
Q 422 1150 422 2328 
Q 422 3509 836 4129 
Q 1250 4750 2034 4750 
z
" transform="scale(0.015625)"/>
       </defs>
       <use xlink:href="#DejaVuSans-30"/>
      </g>
     </g>
    </g>
    <g id="xtick_2">
     <g id="line2d_3">
      <path d="M 115.404261 288.430125 
L 115.404261 22.318125 
" clip-path="url(#p96d544de65)" style="fill: none; stroke: #b0b0b0; stroke-width: 0.8; stroke-linecap: square"/>
     </g>
     <g id="line2d_4">
      <g>
       <use xlink:href="#m4c204c602c" x="115.404261" y="288.430125" style="stroke: #000000; stroke-width: 0.8"/>
      </g>
     </g>
     <g id="text_2">
      <!-- 10 -->
      <g transform="translate(109.041761 303.028562) scale(0.1 -0.1)">
       <defs>
        <path id="DejaVuSans-31" d="M 794 531 
L 1825 531 
L 1825 4091 
L 703 3866 
L 703 4441 
L 1819 4666 
L 2450 4666 
L 2450 531 
L 3481 531 
L 3481 0 
L 794 0 
L 794 531 
z
" transform="scale(0.015625)"/>
       </defs>
       <use xlink:href="#DejaVuSans-31"/>
       <use xlink:href="#DejaVuSans-30" x="63.623047"/>
      </g>
     </g>
    </g>
    <g id="xtick_3">
     <g id="line2d_5">
      <path d="M 180.33517 288.430125 
L 180.33517 22.318125 
" clip-path="url(#p96d544de65)" style="fill: none; stroke: #b0b0b0; stroke-width: 0.8; stroke-linecap: square"/>
     </g>
     <g id="line2d_6">
      <g>
       <use xlink:href="#m4c204c602c" x="180.33517" y="288.430125" style="stroke: #000000; stroke-width: 0.8"/>
      </g>
     </g>
     <g id="text_3">
      <!-- 20 -->
      <g transform="translate(173.97267 303.028562) scale(0.1 -0.1)">
       <defs>
        <path id="DejaVuSans-32" d="M 1228 531 
L 3431 531 
L 3431 0 
L 469 0 
L 469 531 
Q 828 903 1448 1529 
Q 2069 2156 2228 2338 
Q 2531 2678 2651 2914 
Q 2772 3150 2772 3378 
Q 2772 3750 2511 3984 
Q 2250 4219 1831 4219 
Q 1534 4219 1204 4116 
Q 875 4013 500 3803 
L 500 4441 
Q 881 4594 1212 4672 
Q 1544 4750 1819 4750 
Q 2544 4750 2975 4387 
Q 3406 4025 3406 3419 
Q 3406 3131 3298 2873 
Q 3191 2616 2906 2266 
Q 2828 2175 2409 1742 
Q 1991 1309 1228 531 
z
" transform="scale(0.015625)"/>
       </defs>
       <use xlink:href="#DejaVuSans-32"/>
       <use xlink:href="#DejaVuSans-30" x="63.623047"/>
      </g>
     </g>
    </g>
    <g id="xtick_4">
     <g id="line2d_7">
      <path d="M 245.26608 288.430125 
L 245.26608 22.318125 
" clip-path="url(#p96d544de65)" style="fill: none; stroke: #b0b0b0; stroke-width: 0.8; stroke-linecap: square"/>
     </g>
     <g id="line2d_8">
      <g>
       <use xlink:href="#m4c204c602c" x="245.26608" y="288.430125" style="stroke: #000000; stroke-width: 0.8"/>
      </g>
     </g>
     <g id="text_4">
      <!-- 30 -->
      <g transform="translate(238.90358 303.028562) scale(0.1 -0.1)">
       <defs>
        <path id="DejaVuSans-33" d="M 2597 2516 
Q 3050 2419 3304 2112 
Q 3559 1806 3559 1356 
Q 3559 666 3084 287 
Q 2609 -91 1734 -91 
Q 1441 -91 1130 -33 
Q 819 25 488 141 
L 488 750 
Q 750 597 1062 519 
Q 1375 441 1716 441 
Q 2309 441 2620 675 
Q 2931 909 2931 1356 
Q 2931 1769 2642 2001 
Q 2353 2234 1838 2234 
L 1294 2234 
L 1294 2753 
L 1863 2753 
Q 2328 2753 2575 2939 
Q 2822 3125 2822 3475 
Q 2822 3834 2567 4026 
Q 2313 4219 1838 4219 
Q 1578 4219 1281 4162 
Q 984 4106 628 3988 
L 628 4550 
Q 988 4650 1302 4700 
Q 1616 4750 1894 4750 
Q 2613 4750 3031 4423 
Q 3450 4097 3450 3541 
Q 3450 3153 3228 2886 
Q 3006 2619 2597 2516 
z
" transform="scale(0.015625)"/>
       </defs>
       <use xlink:href="#DejaVuSans-33"/>
       <use xlink:href="#DejaVuSans-30" x="63.623047"/>
      </g>
     </g>
    </g>
    <g id="xtick_5">
     <g id="line2d_9">
      <path d="M 310.196989 288.430125 
L 310.196989 22.318125 
" clip-path="url(#p96d544de65)" style="fill: none; stroke: #b0b0b0; stroke-width: 0.8; stroke-linecap: square"/>
     </g>
     <g id="line2d_10">
      <g>
       <use xlink:href="#m4c204c602c" x="310.196989" y="288.430125" style="stroke: #000000; stroke-width: 0.8"/>
      </g>
     </g>
     <g id="text_5">
      <!-- 40 -->
      <g transform="translate(303.834489 303.028562) scale(0.1 -0.1)">
       <defs>
        <path id="DejaVuSans-34" d="M 2419 4116 
L 825 1625 
L 2419 1625 
L 2419 4116 
z
M 2253 4666 
L 3047 4666 
L 3047 1625 
L 3713 1625 
L 3713 1100 
L 3047 1100 
L 3047 0 
L 2419 0 
L 2419 1100 
L 313 1100 
L 313 1709 
L 2253 4666 
z
" transform="scale(0.015625)"/>
       </defs>
       <use xlink:href="#DejaVuSans-34"/>
       <use xlink:href="#DejaVuSans-30" x="63.623047"/>
      </g>
     </g>
    </g>
    <g id="xtick_6">
     <g id="line2d_11">
      <path d="M 375.127898 288.430125 
L 375.127898 22.318125 
" clip-path="url(#p96d544de65)" style="fill: none; stroke: #b0b0b0; stroke-width: 0.8; stroke-linecap: square"/>
     </g>
     <g id="line2d_12">
      <g>
       <use xlink:href="#m4c204c602c" x="375.127898" y="288.430125" style="stroke: #000000; stroke-width: 0.8"/>
      </g>
     </g>
     <g id="text_6">
      <!-- 50 -->
      <g transform="translate(368.765398 303.028562) scale(0.1 -0.1)">
       <defs>
        <path id="DejaVuSans-35" d="M 691 4666 
L 3169 4666 
L 3169 4134 
L 1269 4134 
L 1269 2991 
Q 1406 3038 1543 3061 
Q 1681 3084 1819 3084 
Q 2600 3084 3056 2656 
Q 3513 2228 3513 1497 
Q 3513 744 3044 326 
Q 2575 -91 1722 -91 
Q 1428 -91 1123 -41 
Q 819 9 494 109 
L 494 744 
Q 775 591 1075 516 
Q 1375 441 1709 441 
Q 2250 441 2565 725 
Q 2881 1009 2881 1497 
Q 2881 1984 2565 2268 
Q 2250 2553 1709 2553 
Q 1456 2553 1204 2497 
Q 953 2441 691 2322 
L 691 4666 
z
" transform="scale(0.015625)"/>
       </defs>
       <use xlink:href="#DejaVuSans-35"/>
       <use xlink:href="#DejaVuSans-30" x="63.623047"/>
      </g>
     </g>
    </g>
    <g id="text_7">
     <!-- Current (mA) -->
     <g transform="translate(180.242813 316.706687) scale(0.1 -0.1)">
      <defs>
       <path id="DejaVuSans-43" d="M 4122 4306 
L 4122 3641 
Q 3803 3938 3442 4084 
Q 3081 4231 2675 4231 
Q 1875 4231 1450 3742 
Q 1025 3253 1025 2328 
Q 1025 1406 1450 917 
Q 1875 428 2675 428 
Q 3081 428 3442 575 
Q 3803 722 4122 1019 
L 4122 359 
Q 3791 134 3420 21 
Q 3050 -91 2638 -91 
Q 1578 -91 968 557 
Q 359 1206 359 2328 
Q 359 3453 968 4101 
Q 1578 4750 2638 4750 
Q 3056 4750 3426 4639 
Q 3797 4528 4122 4306 
z
" transform="scale(0.015625)"/>
       <path id="DejaVuSans-75" d="M 544 1381 
L 544 3500 
L 1119 3500 
L 1119 1403 
Q 1119 906 1312 657 
Q 1506 409 1894 409 
Q 2359 409 2629 706 
Q 2900 1003 2900 1516 
L 2900 3500 
L 3475 3500 
L 3475 0 
L 2900 0 
L 2900 538 
Q 2691 219 2414 64 
Q 2138 -91 1772 -91 
Q 1169 -91 856 284 
Q 544 659 544 1381 
z
M 1991 3584 
L 1991 3584 
z
" transform="scale(0.015625)"/>
       <path id="DejaVuSans-72" d="M 2631 2963 
Q 2534 3019 2420 3045 
Q 2306 3072 2169 3072 
Q 1681 3072 1420 2755 
Q 1159 2438 1159 1844 
L 1159 0 
L 581 0 
L 581 3500 
L 1159 3500 
L 1159 2956 
Q 1341 3275 1631 3429 
Q 1922 3584 2338 3584 
Q 2397 3584 2469 3576 
Q 2541 3569 2628 3553 
L 2631 2963 
z
" transform="scale(0.015625)"/>
       <path id="DejaVuSans-65" d="M 3597 1894 
L 3597 1613 
L 953 1613 
Q 991 1019 1311 708 
Q 1631 397 2203 397 
Q 2534 397 2845 478 
Q 3156 559 3463 722 
L 3463 178 
Q 3153 47 2828 -22 
Q 2503 -91 2169 -91 
Q 1331 -91 842 396 
Q 353 884 353 1716 
Q 353 2575 817 3079 
Q 1281 3584 2069 3584 
Q 2775 3584 3186 3129 
Q 3597 2675 3597 1894 
z
M 3022 2063 
Q 3016 2534 2758 2815 
Q 2500 3097 2075 3097 
Q 1594 3097 1305 2825 
Q 1016 2553 972 2059 
L 3022 2063 
z
" transform="scale(0.015625)"/>
       <path id="DejaVuSans-6e" d="M 3513 2113 
L 3513 0 
L 2938 0 
L 2938 2094 
Q 2938 2591 2744 2837 
Q 2550 3084 2163 3084 
Q 1697 3084 1428 2787 
Q 1159 2491 1159 1978 
L 1159 0 
L 581 0 
L 581 3500 
L 1159 3500 
L 1159 2956 
Q 1366 3272 1645 3428 
Q 1925 3584 2291 3584 
Q 2894 3584 3203 3211 
Q 3513 2838 3513 2113 
z
" transform="scale(0.015625)"/>
       <path id="DejaVuSans-74" d="M 1172 4494 
L 1172 3500 
L 2356 3500 
L 2356 3053 
L 1172 3053 
L 1172 1153 
Q 1172 725 1289 603 
Q 1406 481 1766 481 
L 2356 481 
L 2356 0 
L 1766 0 
Q 1100 0 847 248 
Q 594 497 594 1153 
L 594 3053 
L 172 3053 
L 172 3500 
L 594 3500 
L 594 4494 
L 1172 4494 
z
" transform="scale(0.015625)"/>
       <path id="DejaVuSans-20" transform="scale(0.015625)"/>
       <path id="DejaVuSans-28" d="M 1984 4856 
Q 1566 4138 1362 3434 
Q 1159 2731 1159 2009 
Q 1159 1288 1364 580 
Q 1569 -128 1984 -844 
L 1484 -844 
Q 1016 -109 783 600 
Q 550 1309 550 2009 
Q 550 2706 781 3412 
Q 1013 4119 1484 4856 
L 1984 4856 
z
" transform="scale(0.015625)"/>
       <path id="DejaVuSans-6d" d="M 3328 2828 
Q 3544 3216 3844 3400 
Q 4144 3584 4550 3584 
Q 5097 3584 5394 3201 
Q 5691 2819 5691 2113 
L 5691 0 
L 5113 0 
L 5113 2094 
Q 5113 2597 4934 2840 
Q 4756 3084 4391 3084 
Q 3944 3084 3684 2787 
Q 3425 2491 3425 1978 
L 3425 0 
L 2847 0 
L 2847 2094 
Q 2847 2600 2669 2842 
Q 2491 3084 2119 3084 
Q 1678 3084 1418 2786 
Q 1159 2488 1159 1978 
L 1159 0 
L 581 0 
L 581 3500 
L 1159 3500 
L 1159 2956 
Q 1356 3278 1631 3431 
Q 1906 3584 2284 3584 
Q 2666 3584 2933 3390 
Q 3200 3197 3328 2828 
z
" transform="scale(0.015625)"/>
       <path id="DejaVuSans-41" d="M 2188 4044 
L 1331 1722 
L 3047 1722 
L 2188 4044 
z
M 1831 4666 
L 2547 4666 
L 4325 0 
L 3669 0 
L 3244 1197 
L 1141 1197 
L 716 0 
L 50 0 
L 1831 4666 
z
" transform="scale(0.015625)"/>
       <path id="DejaVuSans-29" d="M 513 4856 
L 1013 4856 
Q 1481 4119 1714 3412 
Q 1947 2706 1947 2009 
Q 1947 1309 1714 600 
Q 1481 -109 1013 -844 
L 513 -844 
Q 928 -128 1133 580 
Q 1338 1288 1338 2009 
Q 1338 2731 1133 3434 
Q 928 4138 513 4856 
z
" transform="scale(0.015625)"/>
      </defs>
      <use xlink:href="#DejaVuSans-43"/>
      <use xlink:href="#DejaVuSans-75" x="69.824219"/>
      <use xlink:href="#DejaVuSans-72" x="133.203125"/>
      <use xlink:href="#DejaVuSans-72" x="172.566406"/>
      <use xlink:href="#DejaVuSans-65" x="211.429688"/>
      <use xlink:href="#DejaVuSans-6e" x="272.953125"/>
      <use xlink:href="#DejaVuSans-74" x="336.332031"/>
      <use xlink:href="#DejaVuSans-20" x="375.541016"/>
      <use xlink:href="#DejaVuSans-28" x="407.328125"/>
      <use xlink:href="#DejaVuSans-6d" x="446.341797"/>
      <use xlink:href="#DejaVuSans-41" x="543.753906"/>
      <use xlink:href="#DejaVuSans-29" x="612.162109"/>
     </g>
    </g>
   </g>
   <g id="matplotlib.axis_2">
    <g id="ytick_1">
     <g id="line2d_13">
      <path d="M 34.240625 276.334125 
L 391.360625 276.334125 
" clip-path="url(#p96d544de65)" style="fill: none; stroke: #b0b0b0; stroke-width: 0.8; stroke-linecap: square"/>
     </g>
     <g id="line2d_14">
      <defs>
       <path id="m2a00a4bec0" d="M 0 0 
L -3.5 0 
" style="stroke: #000000; stroke-width: 0.8"/>
      </defs>
      <g>
       <use xlink:href="#m2a00a4bec0" x="34.240625" y="276.334125" style="stroke: #000000; stroke-width: 0.8"/>
      </g>
     </g>
     <g id="text_8">
      <!-- 0 -->
      <g transform="translate(20.878125 280.133344) scale(0.1 -0.1)">
       <use xlink:href="#DejaVuSans-30"/>
      </g>
     </g>
    </g>
    <g id="ytick_2">
     <g id="line2d_15">
      <path d="M 34.240625 217.641738 
L 391.360625 217.641738 
" clip-path="url(#p96d544de65)" style="fill: none; stroke: #b0b0b0; stroke-width: 0.8; stroke-linecap: square"/>
     </g>
     <g id="line2d_16">
      <g>
       <use xlink:href="#m2a00a4bec0" x="34.240625" y="217.641738" style="stroke: #000000; stroke-width: 0.8"/>
      </g>
     </g>
     <g id="text_9">
      <!-- 1 -->
      <g transform="translate(20.878125 221.440957) scale(0.1 -0.1)">
       <use xlink:href="#DejaVuSans-31"/>
      </g>
     </g>
    </g>
    <g id="ytick_3">
     <g id="line2d_17">
      <path d="M 34.240625 158.949351 
L 391.360625 158.949351 
" clip-path="url(#p96d544de65)" style="fill: none; stroke: #b0b0b0; stroke-width: 0.8; stroke-linecap: square"/>
     </g>
     <g id="line2d_18">
      <g>
       <use xlink:href="#m2a00a4bec0" x="34.240625" y="158.949351" style="stroke: #000000; stroke-width: 0.8"/>
      </g>
     </g>
     <g id="text_10">
      <!-- 2 -->
      <g transform="translate(20.878125 162.748569) scale(0.1 -0.1)">
       <use xlink:href="#DejaVuSans-32"/>
      </g>
     </g>
    </g>
    <g id="ytick_4">
     <g id="line2d_19">
      <path d="M 34.240625 100.256963 
L 391.360625 100.256963 
" clip-path="url(#p96d544de65)" style="fill: none; stroke: #b0b0b0; stroke-width: 0.8; stroke-linecap: square"/>
     </g>
     <g id="line2d_20">
      <g>
       <use xlink:href="#m2a00a4bec0" x="34.240625" y="100.256963" style="stroke: #000000; stroke-width: 0.8"/>
      </g>
     </g>
     <g id="text_11">
      <!-- 3 -->
      <g transform="translate(20.878125 104.056182) scale(0.1 -0.1)">
       <use xlink:href="#DejaVuSans-33"/>
      </g>
     </g>
    </g>
    <g id="ytick_5">
     <g id="line2d_21">
      <path d="M 34.240625 41.564576 
L 391.360625 41.564576 
" clip-path="url(#p96d544de65)" style="fill: none; stroke: #b0b0b0; stroke-width: 0.8; stroke-linecap: square"/>
     </g>
     <g id="line2d_22">
      <g>
       <use xlink:href="#m2a00a4bec0" x="34.240625" y="41.564576" style="stroke: #000000; stroke-width: 0.8"/>
      </g>
     </g>
     <g id="text_12">
      <!-- 4 -->
      <g transform="translate(20.878125 45.363795) scale(0.1 -0.1)">
       <use xlink:href="#DejaVuSans-34"/>
      </g>
     </g>
    </g>
    <g id="text_13">
     <!-- Power (mW) -->
     <g transform="translate(14.798438 185.792875) rotate(-90) scale(0.1 -0.1)">
      <defs>
       <path id="DejaVuSans-50" d="M 1259 4147 
L 1259 2394 
L 2053 2394 
Q 2494 2394 2734 2622 
Q 2975 2850 2975 3272 
Q 2975 3691 2734 3919 
Q 2494 4147 2053 4147 
L 1259 4147 
z
M 628 4666 
L 2053 4666 
Q 2838 4666 3239 4311 
Q 3641 3956 3641 3272 
Q 3641 2581 3239 2228 
Q 2838 1875 2053 1875 
L 1259 1875 
L 1259 0 
L 628 0 
L 628 4666 
z
" transform="scale(0.015625)"/>
       <path id="DejaVuSans-6f" d="M 1959 3097 
Q 1497 3097 1228 2736 
Q 959 2375 959 1747 
Q 959 1119 1226 758 
Q 1494 397 1959 397 
Q 2419 397 2687 759 
Q 2956 1122 2956 1747 
Q 2956 2369 2687 2733 
Q 2419 3097 1959 3097 
z
M 1959 3584 
Q 2709 3584 3137 3096 
Q 3566 2609 3566 1747 
Q 3566 888 3137 398 
Q 2709 -91 1959 -91 
Q 1206 -91 779 398 
Q 353 888 353 1747 
Q 353 2609 779 3096 
Q 1206 3584 1959 3584 
z
" transform="scale(0.015625)"/>
       <path id="DejaVuSans-77" d="M 269 3500 
L 844 3500 
L 1563 769 
L 2278 3500 
L 2956 3500 
L 3675 769 
L 4391 3500 
L 4966 3500 
L 4050 0 
L 3372 0 
L 2619 2869 
L 1863 0 
L 1184 0 
L 269 3500 
z
" transform="scale(0.015625)"/>
       <path id="DejaVuSans-57" d="M 213 4666 
L 850 4666 
L 1831 722 
L 2809 4666 
L 3519 4666 
L 4500 722 
L 5478 4666 
L 6119 4666 
L 4947 0 
L 4153 0 
L 3169 4050 
L 2175 0 
L 1381 0 
L 213 4666 
z
" transform="scale(0.015625)"/>
      </defs>
      <use xlink:href="#DejaVuSans-50"/>
      <use xlink:href="#DejaVuSans-6f" x="56.677734"/>
      <use xlink:href="#DejaVuSans-77" x="117.859375"/>
      <use xlink:href="#DejaVuSans-65" x="199.646484"/>
      <use xlink:href="#DejaVuSans-72" x="261.169922"/>
      <use xlink:href="#DejaVuSans-20" x="302.283203"/>
      <use xlink:href="#DejaVuSans-28" x="334.070312"/>
      <use xlink:href="#DejaVuSans-6d" x="373.083984"/>
      <use xlink:href="#DejaVuSans-57" x="470.496094"/>
      <use xlink:href="#DejaVuSans-29" x="569.373047"/>
     </g>
    </g>
    <g id="text_14">
     <!-- 1e−8 -->
     <g transform="translate(34.240625 19.318125) scale(0.1 -0.1)">
      <defs>
       <path id="DejaVuSans-2212" d="M 678 2272 
L 4684 2272 
L 4684 1741 
L 678 1741 
L 678 2272 
z
" transform="scale(0.015625)"/>
       <path id="DejaVuSans-38" d="M 2034 2216 
Q 1584 2216 1326 1975 
Q 1069 1734 1069 1313 
Q 1069 891 1326 650 
Q 1584 409 2034 409 
Q 2484 409 2743 651 
Q 3003 894 3003 1313 
Q 3003 1734 2745 1975 
Q 2488 2216 2034 2216 
z
M 1403 2484 
Q 997 2584 770 2862 
Q 544 3141 544 3541 
Q 544 4100 942 4425 
Q 1341 4750 2034 4750 
Q 2731 4750 3128 4425 
Q 3525 4100 3525 3541 
Q 3525 3141 3298 2862 
Q 3072 2584 2669 2484 
Q 3125 2378 3379 2068 
Q 3634 1759 3634 1313 
Q 3634 634 3220 271 
Q 2806 -91 2034 -91 
Q 1263 -91 848 271 
Q 434 634 434 1313 
Q 434 1759 690 2068 
Q 947 2378 1403 2484 
z
M 1172 3481 
Q 1172 3119 1398 2916 
Q 1625 2713 2034 2713 
Q 2441 2713 2670 2916 
Q 2900 3119 2900 3481 
Q 2900 3844 2670 4047 
Q 2441 4250 2034 4250 
Q 1625 4250 1398 4047 
Q 1172 3844 1172 3481 
z
" transform="scale(0.015625)"/>
      </defs>
      <use xlink:href="#DejaVuSans-31"/>
      <use xlink:href="#DejaVuSans-65" x="63.623047"/>
      <use xlink:href="#DejaVuSans-2212" x="125.146484"/>
      <use xlink:href="#DejaVuSans-38" x="208.935547"/>
     </g>
    </g>
   </g>
   <g id="line2d_23">
    <path d="M 50.473352 276.334125 
L 123.520625 276.334125 
L 125.143898 275.371472 
L 126.76717 273.50467 
L 128.390443 271.29079 
L 130.013716 269.75005 
L 131.636989 266.51916 
L 133.260261 263.873473 
L 134.883534 260.154712 
L 136.506807 257.245582 
L 138.13008 256.139501 
L 139.753352 253.662494 
L 141.376625 253.201508 
L 142.999898 255.162082 
L 144.62317 256.641855 
L 146.246443 257.241494 
L 147.869716 261.879901 
L 149.492989 261.534941 
L 151.116261 263.436083 
L 152.739534 261.055764 
L 154.362807 258.41661 
L 155.98608 254.714768 
L 157.609352 249.904696 
L 159.232625 249.026887 
L 160.855898 245.842064 
L 162.47917 242.115089 
L 164.102443 242.06352 
L 165.725716 239.25284 
L 167.348989 243.22103 
L 168.972261 249.866573 
L 170.595534 255.593694 
L 172.218807 253.210241 
L 173.84208 256.694609 
L 175.465352 256.366713 
L 177.088625 255.350971 
L 178.711898 256.53305 
L 180.33517 253.935736 
L 181.958443 247.887367 
L 183.581716 239.725891 
L 185.204989 234.530613 
L 186.828261 227.895281 
L 188.451534 226.832236 
L 190.074807 230.970915 
L 191.69808 239.974385 
L 193.321352 242.843614 
L 194.944625 247.469643 
L 196.567898 253.605939 
L 198.19117 259.274685 
L 199.814443 262.890024 
L 201.437716 264.935544 
L 203.060989 263.935664 
L 204.684261 257.782337 
L 207.930807 243.825487 
L 209.55408 244.027114 
L 211.177352 245.262085 
L 212.800625 249.924467 
L 214.423898 252.486739 
L 216.04717 254.652153 
L 217.670443 251.563853 
L 219.293716 251.937386 
L 220.916989 255.344592 
L 222.540261 260.425239 
L 224.163534 260.939122 
L 225.786807 256.153353 
L 227.41008 250.484885 
L 229.033352 247.657253 
L 230.656625 243.795382 
L 232.279898 238.95176 
L 233.90317 229.141865 
L 235.526443 220.398335 
L 237.149716 220.376049 
L 238.772989 227.086899 
L 240.396261 237.836071 
L 242.019534 246.544312 
L 243.642807 248.73389 
L 245.26608 248.832537 
L 246.889352 251.054317 
L 248.512625 247.844104 
L 250.135898 240.011538 
L 251.75917 225.97122 
L 253.382443 220.794777 
L 255.005716 221.714996 
L 256.628989 216.00059 
L 258.252261 211.292142 
L 259.875534 202.294063 
L 261.498807 183.437963 
L 263.12208 168.996551 
L 264.745352 165.167154 
L 266.368625 172.024647 
L 267.991898 170.054803 
L 269.61517 173.465301 
L 271.238443 180.511123 
L 272.861716 184.167481 
L 274.484989 201.372365 
L 276.108261 219.997377 
L 277.731534 230.79908 
L 279.354807 227.575239 
L 280.97808 212.810573 
L 282.601352 187.226725 
L 284.224625 156.833611 
L 285.847898 95.245666 
L 287.47117 62.942302 
L 289.094443 48.72809 
L 290.717716 35.914025 
L 292.340989 46.985694 
L 295.587534 155.892176 
L 297.210807 194.819831 
L 298.83408 199.242576 
L 300.457352 199.678016 
L 302.080625 204.444242 
L 303.703898 198.040433 
L 305.32717 185.288774 
L 306.950443 170.465622 
L 308.573716 169.187185 
L 310.196989 165.693716 
L 311.820261 168.524441 
L 313.443534 176.362034 
L 315.066807 177.170642 
L 316.69008 159.670955 
L 319.936625 94.118433 
L 321.559898 52.918896 
L 323.18317 34.414125 
L 324.806443 63.985832 
L 326.429716 97.021952 
L 328.052989 149.853276 
L 329.676261 192.039909 
L 331.299534 201.473961 
L 332.922807 184.11802 
L 336.169352 154.993627 
L 337.792625 118.599596 
L 339.415898 108.501737 
L 341.03917 109.283627 
L 344.285716 148.359822 
L 347.532261 226.42617 
L 349.155534 236.388081 
L 350.778807 236.900857 
L 352.40208 165.878262 
L 354.025352 120.475165 
L 355.648625 105.758578 
L 357.271898 103.291628 
L 358.89517 109.193595 
L 360.518443 144.693246 
L 362.141716 195.242916 
L 363.764989 206.732918 
L 365.388261 196.676973 
L 367.011534 177.841032 
L 368.634807 173.77489 
L 370.25808 192.995607 
L 371.881352 220.542402 
L 373.504625 223.020308 
L 375.127898 198.085489 
L 375.127898 198.085489 
" clip-path="url(#p96d544de65)" style="fill: none; stroke: #000000; stroke-width: 1.5; stroke-linecap: square"/>
    <defs>
     <path id="m6eeb3e19ff" d="M 0 3 
C 0.795609 3 1.55874 2.683901 2.12132 2.12132 
C 2.683901 1.55874 3 0.795609 3 0 
C 3 -0.795609 2.683901 -1.55874 2.12132 -2.12132 
C 1.55874 -2.683901 0.795609 -3 0 -3 
C -0.795609 -3 -1.55874 -2.683901 -2.12132 -2.12132 
C -2.683901 -1.55874 -3 -0.795609 -3 0 
C -3 0.795609 -2.683901 1.55874 -2.12132 2.12132 
C -1.55874 2.683901 -0.795609 3 0 3 
z
" style="stroke: #000000"/>
    </defs>
    <g clip-path="url(#p96d544de65)">
     <use xlink:href="#m6eeb3e19ff" x="50.473352" y="276.334125" style="stroke: #000000"/>
     <use xlink:href="#m6eeb3e19ff" x="52.096625" y="276.334125" style="stroke: #000000"/>
     <use xlink:href="#m6eeb3e19ff" x="53.719898" y="276.334125" style="stroke: #000000"/>
     <use xlink:href="#m6eeb3e19ff" x="55.34317" y="276.334125" style="stroke: #000000"/>
     <use xlink:href="#m6eeb3e19ff" x="56.966443" y="276.334125" style="stroke: #000000"/>
     <use xlink:href="#m6eeb3e19ff" x="58.589716" y="276.334125" style="stroke: #000000"/>
     <use xlink:href="#m6eeb3e19ff" x="60.212989" y="276.334125" style="stroke: #000000"/>
     <use xlink:href="#m6eeb3e19ff" x="61.836261" y="276.334125" style="stroke: #000000"/>
     <use xlink:href="#m6eeb3e19ff" x="63.459534" y="276.334125" style="stroke: #000000"/>
     <use xlink:href="#m6eeb3e19ff" x="65.082807" y="276.334125" style="stroke: #000000"/>
     <use xlink:href="#m6eeb3e19ff" x="66.70608" y="276.334125" style="stroke: #000000"/>
     <use xlink:href="#m6eeb3e19ff" x="68.329352" y="276.334125" style="stroke: #000000"/>
     <use xlink:href="#m6eeb3e19ff" x="69.952625" y="276.334125" style="stroke: #000000"/>
     <use xlink:href="#m6eeb3e19ff" x="71.575898" y="276.334125" style="stroke: #000000"/>
     <use xlink:href="#m6eeb3e19ff" x="73.19917" y="276.334125" style="stroke: #000000"/>
     <use xlink:href="#m6eeb3e19ff" x="74.822443" y="276.334125" style="stroke: #000000"/>
     <use xlink:href="#m6eeb3e19ff" x="76.445716" y="276.334125" style="stroke: #000000"/>
     <use xlink:href="#m6eeb3e19ff" x="78.068989" y="276.334125" style="stroke: #000000"/>
     <use xlink:href="#m6eeb3e19ff" x="79.692261" y="276.334125" style="stroke: #000000"/>
     <use xlink:href="#m6eeb3e19ff" x="81.315534" y="276.334125" style="stroke: #000000"/>
     <use xlink:href="#m6eeb3e19ff" x="82.938807" y="276.334125" style="stroke: #000000"/>
     <use xlink:href="#m6eeb3e19ff" x="84.56208" y="276.334125" style="stroke: #000000"/>
     <use xlink:href="#m6eeb3e19ff" x="86.185352" y="276.334125" style="stroke: #000000"/>
     <use xlink:href="#m6eeb3e19ff" x="87.808625" y="276.334125" style="stroke: #000000"/>
     <use xlink:href="#m6eeb3e19ff" x="89.431898" y="276.334125" style="stroke: #000000"/>
     <use xlink:href="#m6eeb3e19ff" x="91.05517" y="276.334125" style="stroke: #000000"/>
     <use xlink:href="#m6eeb3e19ff" x="92.678443" y="276.334125" style="stroke: #000000"/>
     <use xlink:href="#m6eeb3e19ff" x="94.301716" y="276.334125" style="stroke: #000000"/>
     <use xlink:href="#m6eeb3e19ff" x="95.924989" y="276.334125" style="stroke: #000000"/>
     <use xlink:href="#m6eeb3e19ff" x="97.548261" y="276.334125" style="stroke: #000000"/>
     <use xlink:href="#m6eeb3e19ff" x="99.171534" y="276.334125" style="stroke: #000000"/>
     <use xlink:href="#m6eeb3e19ff" x="100.794807" y="276.334125" style="stroke: #000000"/>
     <use xlink:href="#m6eeb3e19ff" x="102.41808" y="276.334125" style="stroke: #000000"/>
     <use xlink:href="#m6eeb3e19ff" x="104.041352" y="276.334125" style="stroke: #000000"/>
     <use xlink:href="#m6eeb3e19ff" x="105.664625" y="276.334125" style="stroke: #000000"/>
     <use xlink:href="#m6eeb3e19ff" x="107.287898" y="276.334125" style="stroke: #000000"/>
     <use xlink:href="#m6eeb3e19ff" x="108.91117" y="276.334125" style="stroke: #000000"/>
     <use xlink:href="#m6eeb3e19ff" x="110.534443" y="276.334125" style="stroke: #000000"/>
     <use xlink:href="#m6eeb3e19ff" x="112.157716" y="276.334125" style="stroke: #000000"/>
     <use xlink:href="#m6eeb3e19ff" x="113.780989" y="276.334125" style="stroke: #000000"/>
     <use xlink:href="#m6eeb3e19ff" x="115.404261" y="276.334125" style="stroke: #000000"/>
     <use xlink:href="#m6eeb3e19ff" x="117.027534" y="276.334125" style="stroke: #000000"/>
     <use xlink:href="#m6eeb3e19ff" x="118.650807" y="276.334125" style="stroke: #000000"/>
     <use xlink:href="#m6eeb3e19ff" x="120.27408" y="276.334125" style="stroke: #000000"/>
     <use xlink:href="#m6eeb3e19ff" x="121.897352" y="276.334125" style="stroke: #000000"/>
     <use xlink:href="#m6eeb3e19ff" x="123.520625" y="276.334125" style="stroke: #000000"/>
     <use xlink:href="#m6eeb3e19ff" x="125.143898" y="275.371472" style="stroke: #000000"/>
     <use xlink:href="#m6eeb3e19ff" x="126.76717" y="273.50467" style="stroke: #000000"/>
     <use xlink:href="#m6eeb3e19ff" x="128.390443" y="271.29079" style="stroke: #000000"/>
     <use xlink:href="#m6eeb3e19ff" x="130.013716" y="269.75005" style="stroke: #000000"/>
     <use xlink:href="#m6eeb3e19ff" x="131.636989" y="266.51916" style="stroke: #000000"/>
     <use xlink:href="#m6eeb3e19ff" x="133.260261" y="263.873473" style="stroke: #000000"/>
     <use xlink:href="#m6eeb3e19ff" x="134.883534" y="260.154712" style="stroke: #000000"/>
     <use xlink:href="#m6eeb3e19ff" x="136.506807" y="257.245582" style="stroke: #000000"/>
     <use xlink:href="#m6eeb3e19ff" x="138.13008" y="256.139501" style="stroke: #000000"/>
     <use xlink:href="#m6eeb3e19ff" x="139.753352" y="253.662494" style="stroke: #000000"/>
     <use xlink:href="#m6eeb3e19ff" x="141.376625" y="253.201508" style="stroke: #000000"/>
     <use xlink:href="#m6eeb3e19ff" x="142.999898" y="255.162082" style="stroke: #000000"/>
     <use xlink:href="#m6eeb3e19ff" x="144.62317" y="256.641855" style="stroke: #000000"/>
     <use xlink:href="#m6eeb3e19ff" x="146.246443" y="257.241494" style="stroke: #000000"/>
     <use xlink:href="#m6eeb3e19ff" x="147.869716" y="261.879901" style="stroke: #000000"/>
     <use xlink:href="#m6eeb3e19ff" x="149.492989" y="261.534941" style="stroke: #000000"/>
     <use xlink:href="#m6eeb3e19ff" x="151.116261" y="263.436083" style="stroke: #000000"/>
     <use xlink:href="#m6eeb3e19ff" x="152.739534" y="261.055764" style="stroke: #000000"/>
     <use xlink:href="#m6eeb3e19ff" x="154.362807" y="258.41661" style="stroke: #000000"/>
     <use xlink:href="#m6eeb3e19ff" x="155.98608" y="254.714768" style="stroke: #000000"/>
     <use xlink:href="#m6eeb3e19ff" x="157.609352" y="249.904696" style="stroke: #000000"/>
     <use xlink:href="#m6eeb3e19ff" x="159.232625" y="249.026887" style="stroke: #000000"/>
     <use xlink:href="#m6eeb3e19ff" x="160.855898" y="245.842064" style="stroke: #000000"/>
     <use xlink:href="#m6eeb3e19ff" x="162.47917" y="242.115089" style="stroke: #000000"/>
     <use xlink:href="#m6eeb3e19ff" x="164.102443" y="242.06352" style="stroke: #000000"/>
     <use xlink:href="#m6eeb3e19ff" x="165.725716" y="239.25284" style="stroke: #000000"/>
     <use xlink:href="#m6eeb3e19ff" x="167.348989" y="243.22103" style="stroke: #000000"/>
     <use xlink:href="#m6eeb3e19ff" x="168.972261" y="249.866573" style="stroke: #000000"/>
     <use xlink:href="#m6eeb3e19ff" x="170.595534" y="255.593694" style="stroke: #000000"/>
     <use xlink:href="#m6eeb3e19ff" x="172.218807" y="253.210241" style="stroke: #000000"/>
     <use xlink:href="#m6eeb3e19ff" x="173.84208" y="256.694609" style="stroke: #000000"/>
     <use xlink:href="#m6eeb3e19ff" x="175.465352" y="256.366713" style="stroke: #000000"/>
     <use xlink:href="#m6eeb3e19ff" x="177.088625" y="255.350971" style="stroke: #000000"/>
     <use xlink:href="#m6eeb3e19ff" x="178.711898" y="256.53305" style="stroke: #000000"/>
     <use xlink:href="#m6eeb3e19ff" x="180.33517" y="253.935736" style="stroke: #000000"/>
     <use xlink:href="#m6eeb3e19ff" x="181.958443" y="247.887367" style="stroke: #000000"/>
     <use xlink:href="#m6eeb3e19ff" x="183.581716" y="239.725891" style="stroke: #000000"/>
     <use xlink:href="#m6eeb3e19ff" x="185.204989" y="234.530613" style="stroke: #000000"/>
     <use xlink:href="#m6eeb3e19ff" x="186.828261" y="227.895281" style="stroke: #000000"/>
     <use xlink:href="#m6eeb3e19ff" x="188.451534" y="226.832236" style="stroke: #000000"/>
     <use xlink:href="#m6eeb3e19ff" x="190.074807" y="230.970915" style="stroke: #000000"/>
     <use xlink:href="#m6eeb3e19ff" x="191.69808" y="239.974385" style="stroke: #000000"/>
     <use xlink:href="#m6eeb3e19ff" x="193.321352" y="242.843614" style="stroke: #000000"/>
     <use xlink:href="#m6eeb3e19ff" x="194.944625" y="247.469643" style="stroke: #000000"/>
     <use xlink:href="#m6eeb3e19ff" x="196.567898" y="253.605939" style="stroke: #000000"/>
     <use xlink:href="#m6eeb3e19ff" x="198.19117" y="259.274685" style="stroke: #000000"/>
     <use xlink:href="#m6eeb3e19ff" x="199.814443" y="262.890024" style="stroke: #000000"/>
     <use xlink:href="#m6eeb3e19ff" x="201.437716" y="264.935544" style="stroke: #000000"/>
     <use xlink:href="#m6eeb3e19ff" x="203.060989" y="263.935664" style="stroke: #000000"/>
     <use xlink:href="#m6eeb3e19ff" x="204.684261" y="257.782337" style="stroke: #000000"/>
     <use xlink:href="#m6eeb3e19ff" x="206.307534" y="250.844305" style="stroke: #000000"/>
     <use xlink:href="#m6eeb3e19ff" x="207.930807" y="243.825487" style="stroke: #000000"/>
     <use xlink:href="#m6eeb3e19ff" x="209.55408" y="244.027114" style="stroke: #000000"/>
     <use xlink:href="#m6eeb3e19ff" x="211.177352" y="245.262085" style="stroke: #000000"/>
     <use xlink:href="#m6eeb3e19ff" x="212.800625" y="249.924467" style="stroke: #000000"/>
     <use xlink:href="#m6eeb3e19ff" x="214.423898" y="252.486739" style="stroke: #000000"/>
     <use xlink:href="#m6eeb3e19ff" x="216.04717" y="254.652153" style="stroke: #000000"/>
     <use xlink:href="#m6eeb3e19ff" x="217.670443" y="251.563853" style="stroke: #000000"/>
     <use xlink:href="#m6eeb3e19ff" x="219.293716" y="251.937386" style="stroke: #000000"/>
     <use xlink:href="#m6eeb3e19ff" x="220.916989" y="255.344592" style="stroke: #000000"/>
     <use xlink:href="#m6eeb3e19ff" x="222.540261" y="260.425239" style="stroke: #000000"/>
     <use xlink:href="#m6eeb3e19ff" x="224.163534" y="260.939122" style="stroke: #000000"/>
     <use xlink:href="#m6eeb3e19ff" x="225.786807" y="256.153353" style="stroke: #000000"/>
     <use xlink:href="#m6eeb3e19ff" x="227.41008" y="250.484885" style="stroke: #000000"/>
     <use xlink:href="#m6eeb3e19ff" x="229.033352" y="247.657253" style="stroke: #000000"/>
     <use xlink:href="#m6eeb3e19ff" x="230.656625" y="243.795382" style="stroke: #000000"/>
     <use xlink:href="#m6eeb3e19ff" x="232.279898" y="238.95176" style="stroke: #000000"/>
     <use xlink:href="#m6eeb3e19ff" x="233.90317" y="229.141865" style="stroke: #000000"/>
     <use xlink:href="#m6eeb3e19ff" x="235.526443" y="220.398335" style="stroke: #000000"/>
     <use xlink:href="#m6eeb3e19ff" x="237.149716" y="220.376049" style="stroke: #000000"/>
     <use xlink:href="#m6eeb3e19ff" x="238.772989" y="227.086899" style="stroke: #000000"/>
     <use xlink:href="#m6eeb3e19ff" x="240.396261" y="237.836071" style="stroke: #000000"/>
     <use xlink:href="#m6eeb3e19ff" x="242.019534" y="246.544312" style="stroke: #000000"/>
     <use xlink:href="#m6eeb3e19ff" x="243.642807" y="248.73389" style="stroke: #000000"/>
     <use xlink:href="#m6eeb3e19ff" x="245.26608" y="248.832537" style="stroke: #000000"/>
     <use xlink:href="#m6eeb3e19ff" x="246.889352" y="251.054317" style="stroke: #000000"/>
     <use xlink:href="#m6eeb3e19ff" x="248.512625" y="247.844104" style="stroke: #000000"/>
     <use xlink:href="#m6eeb3e19ff" x="250.135898" y="240.011538" style="stroke: #000000"/>
     <use xlink:href="#m6eeb3e19ff" x="251.75917" y="225.97122" style="stroke: #000000"/>
     <use xlink:href="#m6eeb3e19ff" x="253.382443" y="220.794777" style="stroke: #000000"/>
     <use xlink:href="#m6eeb3e19ff" x="255.005716" y="221.714996" style="stroke: #000000"/>
     <use xlink:href="#m6eeb3e19ff" x="256.628989" y="216.00059" style="stroke: #000000"/>
     <use xlink:href="#m6eeb3e19ff" x="258.252261" y="211.292142" style="stroke: #000000"/>
     <use xlink:href="#m6eeb3e19ff" x="259.875534" y="202.294063" style="stroke: #000000"/>
     <use xlink:href="#m6eeb3e19ff" x="261.498807" y="183.437963" style="stroke: #000000"/>
     <use xlink:href="#m6eeb3e19ff" x="263.12208" y="168.996551" style="stroke: #000000"/>
     <use xlink:href="#m6eeb3e19ff" x="264.745352" y="165.167154" style="stroke: #000000"/>
     <use xlink:href="#m6eeb3e19ff" x="266.368625" y="172.024647" style="stroke: #000000"/>
     <use xlink:href="#m6eeb3e19ff" x="267.991898" y="170.054803" style="stroke: #000000"/>
     <use xlink:href="#m6eeb3e19ff" x="269.61517" y="173.465301" style="stroke: #000000"/>
     <use xlink:href="#m6eeb3e19ff" x="271.238443" y="180.511123" style="stroke: #000000"/>
     <use xlink:href="#m6eeb3e19ff" x="272.861716" y="184.167481" style="stroke: #000000"/>
     <use xlink:href="#m6eeb3e19ff" x="274.484989" y="201.372365" style="stroke: #000000"/>
     <use xlink:href="#m6eeb3e19ff" x="276.108261" y="219.997377" style="stroke: #000000"/>
     <use xlink:href="#m6eeb3e19ff" x="277.731534" y="230.79908" style="stroke: #000000"/>
     <use xlink:href="#m6eeb3e19ff" x="279.354807" y="227.575239" style="stroke: #000000"/>
     <use xlink:href="#m6eeb3e19ff" x="280.97808" y="212.810573" style="stroke: #000000"/>
     <use xlink:href="#m6eeb3e19ff" x="282.601352" y="187.226725" style="stroke: #000000"/>
     <use xlink:href="#m6eeb3e19ff" x="284.224625" y="156.833611" style="stroke: #000000"/>
     <use xlink:href="#m6eeb3e19ff" x="285.847898" y="95.245666" style="stroke: #000000"/>
     <use xlink:href="#m6eeb3e19ff" x="287.47117" y="62.942302" style="stroke: #000000"/>
     <use xlink:href="#m6eeb3e19ff" x="289.094443" y="48.72809" style="stroke: #000000"/>
     <use xlink:href="#m6eeb3e19ff" x="290.717716" y="35.914025" style="stroke: #000000"/>
     <use xlink:href="#m6eeb3e19ff" x="292.340989" y="46.985694" style="stroke: #000000"/>
     <use xlink:href="#m6eeb3e19ff" x="293.964261" y="101.608431" style="stroke: #000000"/>
     <use xlink:href="#m6eeb3e19ff" x="295.587534" y="155.892176" style="stroke: #000000"/>
     <use xlink:href="#m6eeb3e19ff" x="297.210807" y="194.819831" style="stroke: #000000"/>
     <use xlink:href="#m6eeb3e19ff" x="298.83408" y="199.242576" style="stroke: #000000"/>
     <use xlink:href="#m6eeb3e19ff" x="300.457352" y="199.678016" style="stroke: #000000"/>
     <use xlink:href="#m6eeb3e19ff" x="302.080625" y="204.444242" style="stroke: #000000"/>
     <use xlink:href="#m6eeb3e19ff" x="303.703898" y="198.040433" style="stroke: #000000"/>
     <use xlink:href="#m6eeb3e19ff" x="305.32717" y="185.288774" style="stroke: #000000"/>
     <use xlink:href="#m6eeb3e19ff" x="306.950443" y="170.465622" style="stroke: #000000"/>
     <use xlink:href="#m6eeb3e19ff" x="308.573716" y="169.187185" style="stroke: #000000"/>
     <use xlink:href="#m6eeb3e19ff" x="310.196989" y="165.693716" style="stroke: #000000"/>
     <use xlink:href="#m6eeb3e19ff" x="311.820261" y="168.524441" style="stroke: #000000"/>
     <use xlink:href="#m6eeb3e19ff" x="313.443534" y="176.362034" style="stroke: #000000"/>
     <use xlink:href="#m6eeb3e19ff" x="315.066807" y="177.170642" style="stroke: #000000"/>
     <use xlink:href="#m6eeb3e19ff" x="316.69008" y="159.670955" style="stroke: #000000"/>
     <use xlink:href="#m6eeb3e19ff" x="318.313352" y="126.395414" style="stroke: #000000"/>
     <use xlink:href="#m6eeb3e19ff" x="319.936625" y="94.118433" style="stroke: #000000"/>
     <use xlink:href="#m6eeb3e19ff" x="321.559898" y="52.918896" style="stroke: #000000"/>
     <use xlink:href="#m6eeb3e19ff" x="323.18317" y="34.414125" style="stroke: #000000"/>
     <use xlink:href="#m6eeb3e19ff" x="324.806443" y="63.985832" style="stroke: #000000"/>
     <use xlink:href="#m6eeb3e19ff" x="326.429716" y="97.021952" style="stroke: #000000"/>
     <use xlink:href="#m6eeb3e19ff" x="328.052989" y="149.853276" style="stroke: #000000"/>
     <use xlink:href="#m6eeb3e19ff" x="329.676261" y="192.039909" style="stroke: #000000"/>
     <use xlink:href="#m6eeb3e19ff" x="331.299534" y="201.473961" style="stroke: #000000"/>
     <use xlink:href="#m6eeb3e19ff" x="332.922807" y="184.11802" style="stroke: #000000"/>
     <use xlink:href="#m6eeb3e19ff" x="334.54608" y="169.357037" style="stroke: #000000"/>
     <use xlink:href="#m6eeb3e19ff" x="336.169352" y="154.993627" style="stroke: #000000"/>
     <use xlink:href="#m6eeb3e19ff" x="337.792625" y="118.599596" style="stroke: #000000"/>
     <use xlink:href="#m6eeb3e19ff" x="339.415898" y="108.501737" style="stroke: #000000"/>
     <use xlink:href="#m6eeb3e19ff" x="341.03917" y="109.283627" style="stroke: #000000"/>
     <use xlink:href="#m6eeb3e19ff" x="342.662443" y="128.206597" style="stroke: #000000"/>
     <use xlink:href="#m6eeb3e19ff" x="344.285716" y="148.359822" style="stroke: #000000"/>
     <use xlink:href="#m6eeb3e19ff" x="345.908989" y="186.643144" style="stroke: #000000"/>
     <use xlink:href="#m6eeb3e19ff" x="347.532261" y="226.42617" style="stroke: #000000"/>
     <use xlink:href="#m6eeb3e19ff" x="349.155534" y="236.388081" style="stroke: #000000"/>
     <use xlink:href="#m6eeb3e19ff" x="350.778807" y="236.900857" style="stroke: #000000"/>
     <use xlink:href="#m6eeb3e19ff" x="352.40208" y="165.878262" style="stroke: #000000"/>
     <use xlink:href="#m6eeb3e19ff" x="354.025352" y="120.475165" style="stroke: #000000"/>
     <use xlink:href="#m6eeb3e19ff" x="355.648625" y="105.758578" style="stroke: #000000"/>
     <use xlink:href="#m6eeb3e19ff" x="357.271898" y="103.291628" style="stroke: #000000"/>
     <use xlink:href="#m6eeb3e19ff" x="358.89517" y="109.193595" style="stroke: #000000"/>
     <use xlink:href="#m6eeb3e19ff" x="360.518443" y="144.693246" style="stroke: #000000"/>
     <use xlink:href="#m6eeb3e19ff" x="362.141716" y="195.242916" style="stroke: #000000"/>
     <use xlink:href="#m6eeb3e19ff" x="363.764989" y="206.732918" style="stroke: #000000"/>
     <use xlink:href="#m6eeb3e19ff" x="365.388261" y="196.676973" style="stroke: #000000"/>
     <use xlink:href="#m6eeb3e19ff" x="367.011534" y="177.841032" style="stroke: #000000"/>
     <use xlink:href="#m6eeb3e19ff" x="368.634807" y="173.77489" style="stroke: #000000"/>
     <use xlink:href="#m6eeb3e19ff" x="370.25808" y="192.995607" style="stroke: #000000"/>
     <use xlink:href="#m6eeb3e19ff" x="371.881352" y="220.542402" style="stroke: #000000"/>
     <use xlink:href="#m6eeb3e19ff" x="373.504625" y="223.020308" style="stroke: #000000"/>
     <use xlink:href="#m6eeb3e19ff" x="375.127898" y="198.085489" style="stroke: #000000"/>
    </g>
   </g>
   <g id="patch_3">
    <path d="M 34.240625 288.430125 
L 34.240625 22.318125 
" style="fill: none; stroke: #000000; stroke-width: 0.8; stroke-linejoin: miter; stroke-linecap: square"/>
   </g>
   <g id="patch_4">
    <path d="M 391.360625 288.430125 
L 391.360625 22.318125 
" style="fill: none; stroke: #000000; stroke-width: 0.8; stroke-linejoin: miter; stroke-linecap: square"/>
   </g>
   <g id="patch_5">
    <path d="M 34.240625 288.430125 
L 391.360625 288.430125 
" style="fill: none; stroke: #000000; stroke-width: 0.8; stroke-linejoin: miter; stroke-linecap: square"/>
   </g>
   <g id="patch_6">
    <path d="M 34.240625 22.318125 
L 391.360625 22.318125 
" style="fill: none; stroke: #000000; stroke-width: 0.8; stroke-linejoin: miter; stroke-linecap: square"/>
   </g>
   <g id="text_15">
    <!-- Current vs Power - Channel 0 -->
    <g transform="translate(125.305625 16.318125) scale(0.12 -0.12)">
     <defs>
      <path id="DejaVuSans-76" d="M 191 3500 
L 800 3500 
L 1894 563 
L 2988 3500 
L 3597 3500 
L 2284 0 
L 1503 0 
L 191 3500 
z
" transform="scale(0.015625)"/>
      <path id="DejaVuSans-73" d="M 2834 3397 
L 2834 2853 
Q 2591 2978 2328 3040 
Q 2066 3103 1784 3103 
Q 1356 3103 1142 2972 
Q 928 2841 928 2578 
Q 928 2378 1081 2264 
Q 1234 2150 1697 2047 
L 1894 2003 
Q 2506 1872 2764 1633 
Q 3022 1394 3022 966 
Q 3022 478 2636 193 
Q 2250 -91 1575 -91 
Q 1294 -91 989 -36 
Q 684 19 347 128 
L 347 722 
Q 666 556 975 473 
Q 1284 391 1588 391 
Q 1994 391 2212 530 
Q 2431 669 2431 922 
Q 2431 1156 2273 1281 
Q 2116 1406 1581 1522 
L 1381 1569 
Q 847 1681 609 1914 
Q 372 2147 372 2553 
Q 372 3047 722 3315 
Q 1072 3584 1716 3584 
Q 2034 3584 2315 3537 
Q 2597 3491 2834 3397 
z
" transform="scale(0.015625)"/>
      <path id="DejaVuSans-2d" d="M 313 2009 
L 1997 2009 
L 1997 1497 
L 313 1497 
L 313 2009 
z
" transform="scale(0.015625)"/>
      <path id="DejaVuSans-68" d="M 3513 2113 
L 3513 0 
L 2938 0 
L 2938 2094 
Q 2938 2591 2744 2837 
Q 2550 3084 2163 3084 
Q 1697 3084 1428 2787 
Q 1159 2491 1159 1978 
L 1159 0 
L 581 0 
L 581 4863 
L 1159 4863 
L 1159 2956 
Q 1366 3272 1645 3428 
Q 1925 3584 2291 3584 
Q 2894 3584 3203 3211 
Q 3513 2838 3513 2113 
z
" transform="scale(0.015625)"/>
      <path id="DejaVuSans-61" d="M 2194 1759 
Q 1497 1759 1228 1600 
Q 959 1441 959 1056 
Q 959 750 1161 570 
Q 1363 391 1709 391 
Q 2188 391 2477 730 
Q 2766 1069 2766 1631 
L 2766 1759 
L 2194 1759 
z
M 3341 1997 
L 3341 0 
L 2766 0 
L 2766 531 
Q 2569 213 2275 61 
Q 1981 -91 1556 -91 
Q 1019 -91 701 211 
Q 384 513 384 1019 
Q 384 1609 779 1909 
Q 1175 2209 1959 2209 
L 2766 2209 
L 2766 2266 
Q 2766 2663 2505 2880 
Q 2244 3097 1772 3097 
Q 1472 3097 1187 3025 
Q 903 2953 641 2809 
L 641 3341 
Q 956 3463 1253 3523 
Q 1550 3584 1831 3584 
Q 2591 3584 2966 3190 
Q 3341 2797 3341 1997 
z
" transform="scale(0.015625)"/>
      <path id="DejaVuSans-6c" d="M 603 4863 
L 1178 4863 
L 1178 0 
L 603 0 
L 603 4863 
z
" transform="scale(0.015625)"/>
     </defs>
     <use xlink:href="#DejaVuSans-43"/>
     <use xlink:href="#DejaVuSans-75" x="69.824219"/>
     <use xlink:href="#DejaVuSans-72" x="133.203125"/>
     <use xlink:href="#DejaVuSans-72" x="172.566406"/>
     <use xlink:href="#DejaVuSans-65" x="211.429688"/>
     <use xlink:href="#DejaVuSans-6e" x="272.953125"/>
     <use xlink:href="#DejaVuSans-74" x="336.332031"/>
     <use xlink:href="#DejaVuSans-20" x="375.541016"/>
     <use xlink:href="#DejaVuSans-76" x="407.328125"/>
     <use xlink:href="#DejaVuSans-73" x="466.507812"/>
     <use xlink:href="#DejaVuSans-20" x="518.607422"/>
     <use xlink:href="#DejaVuSans-50" x="550.394531"/>
     <use xlink:href="#DejaVuSans-6f" x="607.072266"/>
     <use xlink:href="#DejaVuSans-77" x="668.253906"/>
     <use xlink:href="#DejaVuSans-65" x="750.041016"/>
     <use xlink:href="#DejaVuSans-72" x="811.564453"/>
     <use xlink:href="#DejaVuSans-20" x="852.677734"/>
     <use xlink:href="#DejaVuSans-2d" x="884.464844"/>
     <use xlink:href="#DejaVuSans-20" x="920.548828"/>
     <use xlink:href="#DejaVuSans-43" x="952.335938"/>
     <use xlink:href="#DejaVuSans-68" x="1022.160156"/>
     <use xlink:href="#DejaVuSans-61" x="1085.539062"/>
     <use xlink:href="#DejaVuSans-6e" x="1146.818359"/>
     <use xlink:href="#DejaVuSans-6e" x="1210.197266"/>
     <use xlink:href="#DejaVuSans-65" x="1273.576172"/>
     <use xlink:href="#DejaVuSans-6c" x="1335.099609"/>
     <use xlink:href="#DejaVuSans-20" x="1362.882812"/>
     <use xlink:href="#DejaVuSans-30" x="1394.669922"/>
    </g>
   </g>
  </g>
 </g>
 <defs>
  <clipPath id="p96d544de65">
   <rect x="34.240625" y="22.318125" width="357.12" height="266.112"/>
  </clipPath>
 </defs>
</svg>
