<?xml version="1.0" encoding="utf-8" standalone="no"?>
<!DOCTYPE svg PUBLIC "-//W3C//DTD SVG 1.1//EN"
  "http://www.w3.org/Graphics/SVG/1.1/DTD/svg11.dtd">
<svg xmlns:xlink="http://www.w3.org/1999/xlink" width="408.10125pt" height="325.986375pt" viewBox="0 0 408.10125 325.986375" xmlns="http://www.w3.org/2000/svg" version="1.1">
 <metadata>
  <rdf:RDF xmlns:dc="http://purl.org/dc/elements/1.1/" xmlns:cc="http://creativecommons.org/ns#" xmlns:rdf="http://www.w3.org/1999/02/22-rdf-syntax-ns#">
   <cc:Work>
    <dc:type rdf:resource="http://purl.org/dc/dcmitype/StillImage"/>
    <dc:date>2025-04-07T20:46:08.006326</dc:date>
    <dc:format>image/svg+xml</dc:format>
    <dc:creator>
     <cc:Agent>
      <dc:title>Matplotlib v3.7.2, https://matplotlib.org/</dc:title>
     </cc:Agent>
    </dc:creator>
   </cc:Work>
  </rdf:RDF>
 </metadata>
 <defs>
  <style type="text/css">*{stroke-linejoin: round; stroke-linecap: butt}</style>
 </defs>
 <g id="figure_1">
  <g id="patch_1">
   <path d="M 0 325.986375 
L 408.10125 325.986375 
L 408.10125 0 
L 0 0 
z
" style="fill: #ffffff"/>
  </g>
  <g id="axes_1">
   <g id="patch_2">
    <path d="M 43.78125 288.430125 
L 400.90125 288.430125 
L 400.90125 22.318125 
L 43.78125 22.318125 
z
" style="fill: #ffffff"/>
   </g>
   <g id="matplotlib.axis_1">
    <g id="xtick_1">
     <g id="line2d_1">
      <path d="M 60.013977 288.430125 
L 60.013977 22.318125 
" clip-path="url(#p707a7b5c73)" style="fill: none; stroke: #b0b0b0; stroke-width: 0.8; stroke-linecap: square"/>
     </g>
     <g id="line2d_2">
      <defs>
       <path id="m263addceac" d="M 0 0 
L 0 3.5 
" style="stroke: #000000; stroke-width: 0.8"/>
      </defs>
      <g>
       <use xlink:href="#m263addceac" x="60.013977" y="288.430125" style="stroke: #000000; stroke-width: 0.8"/>
      </g>
     </g>
     <g id="text_1">
      <!-- 0 -->
      <g transform="translate(56.832727 303.028562) scale(0.1 -0.1)">
       <defs>
        <path id="DejaVuSans-30" d="M 2034 4250 
Q 1547 4250 1301 3770 
Q 1056 3291 1056 2328 
Q 1056 1369 1301 889 
Q 1547 409 2034 409 
Q 2525 409 2770 889 
Q 3016 1369 3016 2328 
Q 3016 3291 2770 3770 
Q 2525 4250 2034 4250 
z
M 2034 4750 
Q 2819 4750 3233 4129 
Q 3647 3509 3647 2328 
Q 3647 1150 3233 529 
Q 2819 -91 2034 -91 
Q 1250 -91 836 529 
Q 422 1150 422 2328 
Q 422 3509 836 4129 
Q 1250 4750 2034 4750 
z
" transform="scale(0.015625)"/>
       </defs>
       <use xlink:href="#DejaVuSans-30"/>
      </g>
     </g>
    </g>
    <g id="xtick_2">
     <g id="line2d_3">
      <path d="M 124.944886 288.430125 
L 124.944886 22.318125 
" clip-path="url(#p707a7b5c73)" style="fill: none; stroke: #b0b0b0; stroke-width: 0.8; stroke-linecap: square"/>
     </g>
     <g id="line2d_4">
      <g>
       <use xlink:href="#m263addceac" x="124.944886" y="288.430125" style="stroke: #000000; stroke-width: 0.8"/>
      </g>
     </g>
     <g id="text_2">
      <!-- 10 -->
      <g transform="translate(118.582386 303.028562) scale(0.1 -0.1)">
       <defs>
        <path id="DejaVuSans-31" d="M 794 531 
L 1825 531 
L 1825 4091 
L 703 3866 
L 703 4441 
L 1819 4666 
L 2450 4666 
L 2450 531 
L 3481 531 
L 3481 0 
L 794 0 
L 794 531 
z
" transform="scale(0.015625)"/>
       </defs>
       <use xlink:href="#DejaVuSans-31"/>
       <use xlink:href="#DejaVuSans-30" x="63.623047"/>
      </g>
     </g>
    </g>
    <g id="xtick_3">
     <g id="line2d_5">
      <path d="M 189.875795 288.430125 
L 189.875795 22.318125 
" clip-path="url(#p707a7b5c73)" style="fill: none; stroke: #b0b0b0; stroke-width: 0.8; stroke-linecap: square"/>
     </g>
     <g id="line2d_6">
      <g>
       <use xlink:href="#m263addceac" x="189.875795" y="288.430125" style="stroke: #000000; stroke-width: 0.8"/>
      </g>
     </g>
     <g id="text_3">
      <!-- 20 -->
      <g transform="translate(183.513295 303.028562) scale(0.1 -0.1)">
       <defs>
        <path id="DejaVuSans-32" d="M 1228 531 
L 3431 531 
L 3431 0 
L 469 0 
L 469 531 
Q 828 903 1448 1529 
Q 2069 2156 2228 2338 
Q 2531 2678 2651 2914 
Q 2772 3150 2772 3378 
Q 2772 3750 2511 3984 
Q 2250 4219 1831 4219 
Q 1534 4219 1204 4116 
Q 875 4013 500 3803 
L 500 4441 
Q 881 4594 1212 4672 
Q 1544 4750 1819 4750 
Q 2544 4750 2975 4387 
Q 3406 4025 3406 3419 
Q 3406 3131 3298 2873 
Q 3191 2616 2906 2266 
Q 2828 2175 2409 1742 
Q 1991 1309 1228 531 
z
" transform="scale(0.015625)"/>
       </defs>
       <use xlink:href="#DejaVuSans-32"/>
       <use xlink:href="#DejaVuSans-30" x="63.623047"/>
      </g>
     </g>
    </g>
    <g id="xtick_4">
     <g id="line2d_7">
      <path d="M 254.806705 288.430125 
L 254.806705 22.318125 
" clip-path="url(#p707a7b5c73)" style="fill: none; stroke: #b0b0b0; stroke-width: 0.8; stroke-linecap: square"/>
     </g>
     <g id="line2d_8">
      <g>
       <use xlink:href="#m263addceac" x="254.806705" y="288.430125" style="stroke: #000000; stroke-width: 0.8"/>
      </g>
     </g>
     <g id="text_4">
      <!-- 30 -->
      <g transform="translate(248.444205 303.028562) scale(0.1 -0.1)">
       <defs>
        <path id="DejaVuSans-33" d="M 2597 2516 
Q 3050 2419 3304 2112 
Q 3559 1806 3559 1356 
Q 3559 666 3084 287 
Q 2609 -91 1734 -91 
Q 1441 -91 1130 -33 
Q 819 25 488 141 
L 488 750 
Q 750 597 1062 519 
Q 1375 441 1716 441 
Q 2309 441 2620 675 
Q 2931 909 2931 1356 
Q 2931 1769 2642 2001 
Q 2353 2234 1838 2234 
L 1294 2234 
L 1294 2753 
L 1863 2753 
Q 2328 2753 2575 2939 
Q 2822 3125 2822 3475 
Q 2822 3834 2567 4026 
Q 2313 4219 1838 4219 
Q 1578 4219 1281 4162 
Q 984 4106 628 3988 
L 628 4550 
Q 988 4650 1302 4700 
Q 1616 4750 1894 4750 
Q 2613 4750 3031 4423 
Q 3450 4097 3450 3541 
Q 3450 3153 3228 2886 
Q 3006 2619 2597 2516 
z
" transform="scale(0.015625)"/>
       </defs>
       <use xlink:href="#DejaVuSans-33"/>
       <use xlink:href="#DejaVuSans-30" x="63.623047"/>
      </g>
     </g>
    </g>
    <g id="xtick_5">
     <g id="line2d_9">
      <path d="M 319.737614 288.430125 
L 319.737614 22.318125 
" clip-path="url(#p707a7b5c73)" style="fill: none; stroke: #b0b0b0; stroke-width: 0.8; stroke-linecap: square"/>
     </g>
     <g id="line2d_10">
      <g>
       <use xlink:href="#m263addceac" x="319.737614" y="288.430125" style="stroke: #000000; stroke-width: 0.8"/>
      </g>
     </g>
     <g id="text_5">
      <!-- 40 -->
      <g transform="translate(313.375114 303.028562) scale(0.1 -0.1)">
       <defs>
        <path id="DejaVuSans-34" d="M 2419 4116 
L 825 1625 
L 2419 1625 
L 2419 4116 
z
M 2253 4666 
L 3047 4666 
L 3047 1625 
L 3713 1625 
L 3713 1100 
L 3047 1100 
L 3047 0 
L 2419 0 
L 2419 1100 
L 313 1100 
L 313 1709 
L 2253 4666 
z
" transform="scale(0.015625)"/>
       </defs>
       <use xlink:href="#DejaVuSans-34"/>
       <use xlink:href="#DejaVuSans-30" x="63.623047"/>
      </g>
     </g>
    </g>
    <g id="xtick_6">
     <g id="line2d_11">
      <path d="M 384.668523 288.430125 
L 384.668523 22.318125 
" clip-path="url(#p707a7b5c73)" style="fill: none; stroke: #b0b0b0; stroke-width: 0.8; stroke-linecap: square"/>
     </g>
     <g id="line2d_12">
      <g>
       <use xlink:href="#m263addceac" x="384.668523" y="288.430125" style="stroke: #000000; stroke-width: 0.8"/>
      </g>
     </g>
     <g id="text_6">
      <!-- 50 -->
      <g transform="translate(378.306023 303.028562) scale(0.1 -0.1)">
       <defs>
        <path id="DejaVuSans-35" d="M 691 4666 
L 3169 4666 
L 3169 4134 
L 1269 4134 
L 1269 2991 
Q 1406 3038 1543 3061 
Q 1681 3084 1819 3084 
Q 2600 3084 3056 2656 
Q 3513 2228 3513 1497 
Q 3513 744 3044 326 
Q 2575 -91 1722 -91 
Q 1428 -91 1123 -41 
Q 819 9 494 109 
L 494 744 
Q 775 591 1075 516 
Q 1375 441 1709 441 
Q 2250 441 2565 725 
Q 2881 1009 2881 1497 
Q 2881 1984 2565 2268 
Q 2250 2553 1709 2553 
Q 1456 2553 1204 2497 
Q 953 2441 691 2322 
L 691 4666 
z
" transform="scale(0.015625)"/>
       </defs>
       <use xlink:href="#DejaVuSans-35"/>
       <use xlink:href="#DejaVuSans-30" x="63.623047"/>
      </g>
     </g>
    </g>
    <g id="text_7">
     <!-- Current (mA) -->
     <g transform="translate(189.783437 316.706687) scale(0.1 -0.1)">
      <defs>
       <path id="DejaVuSans-43" d="M 4122 4306 
L 4122 3641 
Q 3803 3938 3442 4084 
Q 3081 4231 2675 4231 
Q 1875 4231 1450 3742 
Q 1025 3253 1025 2328 
Q 1025 1406 1450 917 
Q 1875 428 2675 428 
Q 3081 428 3442 575 
Q 3803 722 4122 1019 
L 4122 359 
Q 3791 134 3420 21 
Q 3050 -91 2638 -91 
Q 1578 -91 968 557 
Q 359 1206 359 2328 
Q 359 3453 968 4101 
Q 1578 4750 2638 4750 
Q 3056 4750 3426 4639 
Q 3797 4528 4122 4306 
z
" transform="scale(0.015625)"/>
       <path id="DejaVuSans-75" d="M 544 1381 
L 544 3500 
L 1119 3500 
L 1119 1403 
Q 1119 906 1312 657 
Q 1506 409 1894 409 
Q 2359 409 2629 706 
Q 2900 1003 2900 1516 
L 2900 3500 
L 3475 3500 
L 3475 0 
L 2900 0 
L 2900 538 
Q 2691 219 2414 64 
Q 2138 -91 1772 -91 
Q 1169 -91 856 284 
Q 544 659 544 1381 
z
M 1991 3584 
L 1991 3584 
z
" transform="scale(0.015625)"/>
       <path id="DejaVuSans-72" d="M 2631 2963 
Q 2534 3019 2420 3045 
Q 2306 3072 2169 3072 
Q 1681 3072 1420 2755 
Q 1159 2438 1159 1844 
L 1159 0 
L 581 0 
L 581 3500 
L 1159 3500 
L 1159 2956 
Q 1341 3275 1631 3429 
Q 1922 3584 2338 3584 
Q 2397 3584 2469 3576 
Q 2541 3569 2628 3553 
L 2631 2963 
z
" transform="scale(0.015625)"/>
       <path id="DejaVuSans-65" d="M 3597 1894 
L 3597 1613 
L 953 1613 
Q 991 1019 1311 708 
Q 1631 397 2203 397 
Q 2534 397 2845 478 
Q 3156 559 3463 722 
L 3463 178 
Q 3153 47 2828 -22 
Q 2503 -91 2169 -91 
Q 1331 -91 842 396 
Q 353 884 353 1716 
Q 353 2575 817 3079 
Q 1281 3584 2069 3584 
Q 2775 3584 3186 3129 
Q 3597 2675 3597 1894 
z
M 3022 2063 
Q 3016 2534 2758 2815 
Q 2500 3097 2075 3097 
Q 1594 3097 1305 2825 
Q 1016 2553 972 2059 
L 3022 2063 
z
" transform="scale(0.015625)"/>
       <path id="DejaVuSans-6e" d="M 3513 2113 
L 3513 0 
L 2938 0 
L 2938 2094 
Q 2938 2591 2744 2837 
Q 2550 3084 2163 3084 
Q 1697 3084 1428 2787 
Q 1159 2491 1159 1978 
L 1159 0 
L 581 0 
L 581 3500 
L 1159 3500 
L 1159 2956 
Q 1366 3272 1645 3428 
Q 1925 3584 2291 3584 
Q 2894 3584 3203 3211 
Q 3513 2838 3513 2113 
z
" transform="scale(0.015625)"/>
       <path id="DejaVuSans-74" d="M 1172 4494 
L 1172 3500 
L 2356 3500 
L 2356 3053 
L 1172 3053 
L 1172 1153 
Q 1172 725 1289 603 
Q 1406 481 1766 481 
L 2356 481 
L 2356 0 
L 1766 0 
Q 1100 0 847 248 
Q 594 497 594 1153 
L 594 3053 
L 172 3053 
L 172 3500 
L 594 3500 
L 594 4494 
L 1172 4494 
z
" transform="scale(0.015625)"/>
       <path id="DejaVuSans-20" transform="scale(0.015625)"/>
       <path id="DejaVuSans-28" d="M 1984 4856 
Q 1566 4138 1362 3434 
Q 1159 2731 1159 2009 
Q 1159 1288 1364 580 
Q 1569 -128 1984 -844 
L 1484 -844 
Q 1016 -109 783 600 
Q 550 1309 550 2009 
Q 550 2706 781 3412 
Q 1013 4119 1484 4856 
L 1984 4856 
z
" transform="scale(0.015625)"/>
       <path id="DejaVuSans-6d" d="M 3328 2828 
Q 3544 3216 3844 3400 
Q 4144 3584 4550 3584 
Q 5097 3584 5394 3201 
Q 5691 2819 5691 2113 
L 5691 0 
L 5113 0 
L 5113 2094 
Q 5113 2597 4934 2840 
Q 4756 3084 4391 3084 
Q 3944 3084 3684 2787 
Q 3425 2491 3425 1978 
L 3425 0 
L 2847 0 
L 2847 2094 
Q 2847 2600 2669 2842 
Q 2491 3084 2119 3084 
Q 1678 3084 1418 2786 
Q 1159 2488 1159 1978 
L 1159 0 
L 581 0 
L 581 3500 
L 1159 3500 
L 1159 2956 
Q 1356 3278 1631 3431 
Q 1906 3584 2284 3584 
Q 2666 3584 2933 3390 
Q 3200 3197 3328 2828 
z
" transform="scale(0.015625)"/>
       <path id="DejaVuSans-41" d="M 2188 4044 
L 1331 1722 
L 3047 1722 
L 2188 4044 
z
M 1831 4666 
L 2547 4666 
L 4325 0 
L 3669 0 
L 3244 1197 
L 1141 1197 
L 716 0 
L 50 0 
L 1831 4666 
z
" transform="scale(0.015625)"/>
       <path id="DejaVuSans-29" d="M 513 4856 
L 1013 4856 
Q 1481 4119 1714 3412 
Q 1947 2706 1947 2009 
Q 1947 1309 1714 600 
Q 1481 -109 1013 -844 
L 513 -844 
Q 928 -128 1133 580 
Q 1338 1288 1338 2009 
Q 1338 2731 1133 3434 
Q 928 4138 513 4856 
z
" transform="scale(0.015625)"/>
      </defs>
      <use xlink:href="#DejaVuSans-43"/>
      <use xlink:href="#DejaVuSans-75" x="69.824219"/>
      <use xlink:href="#DejaVuSans-72" x="133.203125"/>
      <use xlink:href="#DejaVuSans-72" x="172.566406"/>
      <use xlink:href="#DejaVuSans-65" x="211.429688"/>
      <use xlink:href="#DejaVuSans-6e" x="272.953125"/>
      <use xlink:href="#DejaVuSans-74" x="336.332031"/>
      <use xlink:href="#DejaVuSans-20" x="375.541016"/>
      <use xlink:href="#DejaVuSans-28" x="407.328125"/>
      <use xlink:href="#DejaVuSans-6d" x="446.341797"/>
      <use xlink:href="#DejaVuSans-41" x="543.753906"/>
      <use xlink:href="#DejaVuSans-29" x="612.162109"/>
     </g>
    </g>
   </g>
   <g id="matplotlib.axis_2">
    <g id="ytick_1">
     <g id="line2d_13">
      <path d="M 43.78125 276.334125 
L 400.90125 276.334125 
" clip-path="url(#p707a7b5c73)" style="fill: none; stroke: #b0b0b0; stroke-width: 0.8; stroke-linecap: square"/>
     </g>
     <g id="line2d_14">
      <defs>
       <path id="m8b086cc812" d="M 0 0 
L -3.5 0 
" style="stroke: #000000; stroke-width: 0.8"/>
      </defs>
      <g>
       <use xlink:href="#m8b086cc812" x="43.78125" y="276.334125" style="stroke: #000000; stroke-width: 0.8"/>
      </g>
     </g>
     <g id="text_8">
      <!-- 0.0 -->
      <g transform="translate(20.878125 280.133344) scale(0.1 -0.1)">
       <defs>
        <path id="DejaVuSans-2e" d="M 684 794 
L 1344 794 
L 1344 0 
L 684 0 
L 684 794 
z
" transform="scale(0.015625)"/>
       </defs>
       <use xlink:href="#DejaVuSans-30"/>
       <use xlink:href="#DejaVuSans-2e" x="63.623047"/>
       <use xlink:href="#DejaVuSans-30" x="95.410156"/>
      </g>
     </g>
    </g>
    <g id="ytick_2">
     <g id="line2d_15">
      <path d="M 43.78125 224.933219 
L 400.90125 224.933219 
" clip-path="url(#p707a7b5c73)" style="fill: none; stroke: #b0b0b0; stroke-width: 0.8; stroke-linecap: square"/>
     </g>
     <g id="line2d_16">
      <g>
       <use xlink:href="#m8b086cc812" x="43.78125" y="224.933219" style="stroke: #000000; stroke-width: 0.8"/>
      </g>
     </g>
     <g id="text_9">
      <!-- 0.5 -->
      <g transform="translate(20.878125 228.732437) scale(0.1 -0.1)">
       <use xlink:href="#DejaVuSans-30"/>
       <use xlink:href="#DejaVuSans-2e" x="63.623047"/>
       <use xlink:href="#DejaVuSans-35" x="95.410156"/>
      </g>
     </g>
    </g>
    <g id="ytick_3">
     <g id="line2d_17">
      <path d="M 43.78125 173.532312 
L 400.90125 173.532312 
" clip-path="url(#p707a7b5c73)" style="fill: none; stroke: #b0b0b0; stroke-width: 0.8; stroke-linecap: square"/>
     </g>
     <g id="line2d_18">
      <g>
       <use xlink:href="#m8b086cc812" x="43.78125" y="173.532312" style="stroke: #000000; stroke-width: 0.8"/>
      </g>
     </g>
     <g id="text_10">
      <!-- 1.0 -->
      <g transform="translate(20.878125 177.331531) scale(0.1 -0.1)">
       <use xlink:href="#DejaVuSans-31"/>
       <use xlink:href="#DejaVuSans-2e" x="63.623047"/>
       <use xlink:href="#DejaVuSans-30" x="95.410156"/>
      </g>
     </g>
    </g>
    <g id="ytick_4">
     <g id="line2d_19">
      <path d="M 43.78125 122.131406 
L 400.90125 122.131406 
" clip-path="url(#p707a7b5c73)" style="fill: none; stroke: #b0b0b0; stroke-width: 0.8; stroke-linecap: square"/>
     </g>
     <g id="line2d_20">
      <g>
       <use xlink:href="#m8b086cc812" x="43.78125" y="122.131406" style="stroke: #000000; stroke-width: 0.8"/>
      </g>
     </g>
     <g id="text_11">
      <!-- 1.5 -->
      <g transform="translate(20.878125 125.930624) scale(0.1 -0.1)">
       <use xlink:href="#DejaVuSans-31"/>
       <use xlink:href="#DejaVuSans-2e" x="63.623047"/>
       <use xlink:href="#DejaVuSans-35" x="95.410156"/>
      </g>
     </g>
    </g>
    <g id="ytick_5">
     <g id="line2d_21">
      <path d="M 43.78125 70.730499 
L 400.90125 70.730499 
" clip-path="url(#p707a7b5c73)" style="fill: none; stroke: #b0b0b0; stroke-width: 0.8; stroke-linecap: square"/>
     </g>
     <g id="line2d_22">
      <g>
       <use xlink:href="#m8b086cc812" x="43.78125" y="70.730499" style="stroke: #000000; stroke-width: 0.8"/>
      </g>
     </g>
     <g id="text_12">
      <!-- 2.0 -->
      <g transform="translate(20.878125 74.529718) scale(0.1 -0.1)">
       <use xlink:href="#DejaVuSans-32"/>
       <use xlink:href="#DejaVuSans-2e" x="63.623047"/>
       <use xlink:href="#DejaVuSans-30" x="95.410156"/>
      </g>
     </g>
    </g>
    <g id="text_13">
     <!-- Power (mW) -->
     <g transform="translate(14.798438 185.792875) rotate(-90) scale(0.1 -0.1)">
      <defs>
       <path id="DejaVuSans-50" d="M 1259 4147 
L 1259 2394 
L 2053 2394 
Q 2494 2394 2734 2622 
Q 2975 2850 2975 3272 
Q 2975 3691 2734 3919 
Q 2494 4147 2053 4147 
L 1259 4147 
z
M 628 4666 
L 2053 4666 
Q 2838 4666 3239 4311 
Q 3641 3956 3641 3272 
Q 3641 2581 3239 2228 
Q 2838 1875 2053 1875 
L 1259 1875 
L 1259 0 
L 628 0 
L 628 4666 
z
" transform="scale(0.015625)"/>
       <path id="DejaVuSans-6f" d="M 1959 3097 
Q 1497 3097 1228 2736 
Q 959 2375 959 1747 
Q 959 1119 1226 758 
Q 1494 397 1959 397 
Q 2419 397 2687 759 
Q 2956 1122 2956 1747 
Q 2956 2369 2687 2733 
Q 2419 3097 1959 3097 
z
M 1959 3584 
Q 2709 3584 3137 3096 
Q 3566 2609 3566 1747 
Q 3566 888 3137 398 
Q 2709 -91 1959 -91 
Q 1206 -91 779 398 
Q 353 888 353 1747 
Q 353 2609 779 3096 
Q 1206 3584 1959 3584 
z
" transform="scale(0.015625)"/>
       <path id="DejaVuSans-77" d="M 269 3500 
L 844 3500 
L 1563 769 
L 2278 3500 
L 2956 3500 
L 3675 769 
L 4391 3500 
L 4966 3500 
L 4050 0 
L 3372 0 
L 2619 2869 
L 1863 0 
L 1184 0 
L 269 3500 
z
" transform="scale(0.015625)"/>
       <path id="DejaVuSans-57" d="M 213 4666 
L 850 4666 
L 1831 722 
L 2809 4666 
L 3519 4666 
L 4500 722 
L 5478 4666 
L 6119 4666 
L 4947 0 
L 4153 0 
L 3169 4050 
L 2175 0 
L 1381 0 
L 213 4666 
z
" transform="scale(0.015625)"/>
      </defs>
      <use xlink:href="#DejaVuSans-50"/>
      <use xlink:href="#DejaVuSans-6f" x="56.677734"/>
      <use xlink:href="#DejaVuSans-77" x="117.859375"/>
      <use xlink:href="#DejaVuSans-65" x="199.646484"/>
      <use xlink:href="#DejaVuSans-72" x="261.169922"/>
      <use xlink:href="#DejaVuSans-20" x="302.283203"/>
      <use xlink:href="#DejaVuSans-28" x="334.070312"/>
      <use xlink:href="#DejaVuSans-6d" x="373.083984"/>
      <use xlink:href="#DejaVuSans-57" x="470.496094"/>
      <use xlink:href="#DejaVuSans-29" x="569.373047"/>
     </g>
    </g>
    <g id="text_14">
     <!-- 1e−8 -->
     <g transform="translate(43.78125 19.318125) scale(0.1 -0.1)">
      <defs>
       <path id="DejaVuSans-2212" d="M 678 2272 
L 4684 2272 
L 4684 1741 
L 678 1741 
L 678 2272 
z
" transform="scale(0.015625)"/>
       <path id="DejaVuSans-38" d="M 2034 2216 
Q 1584 2216 1326 1975 
Q 1069 1734 1069 1313 
Q 1069 891 1326 650 
Q 1584 409 2034 409 
Q 2484 409 2743 651 
Q 3003 894 3003 1313 
Q 3003 1734 2745 1975 
Q 2488 2216 2034 2216 
z
M 1403 2484 
Q 997 2584 770 2862 
Q 544 3141 544 3541 
Q 544 4100 942 4425 
Q 1341 4750 2034 4750 
Q 2731 4750 3128 4425 
Q 3525 4100 3525 3541 
Q 3525 3141 3298 2862 
Q 3072 2584 2669 2484 
Q 3125 2378 3379 2068 
Q 3634 1759 3634 1313 
Q 3634 634 3220 271 
Q 2806 -91 2034 -91 
Q 1263 -91 848 271 
Q 434 634 434 1313 
Q 434 1759 690 2068 
Q 947 2378 1403 2484 
z
M 1172 3481 
Q 1172 3119 1398 2916 
Q 1625 2713 2034 2713 
Q 2441 2713 2670 2916 
Q 2900 3119 2900 3481 
Q 2900 3844 2670 4047 
Q 2441 4250 2034 4250 
Q 1625 4250 1398 4047 
Q 1172 3844 1172 3481 
z
" transform="scale(0.015625)"/>
      </defs>
      <use xlink:href="#DejaVuSans-31"/>
      <use xlink:href="#DejaVuSans-65" x="63.623047"/>
      <use xlink:href="#DejaVuSans-2212" x="125.146484"/>
      <use xlink:href="#DejaVuSans-38" x="208.935547"/>
     </g>
    </g>
   </g>
   <g id="line2d_23">
    <path d="M 60.013977 276.334125 
L 134.684523 276.334125 
L 136.307795 274.065839 
L 137.931068 272.690952 
L 142.800886 265.219501 
L 144.424159 262.871375 
L 146.047432 261.614906 
L 147.670705 263.359471 
L 149.293977 264.541737 
L 150.91725 268.349918 
L 152.540523 272.581581 
L 154.163795 276.299241 
L 160.656886 276.334125 
L 167.149977 276.230197 
L 168.77325 273.326112 
L 170.396523 269.113101 
L 172.019795 271.401061 
L 173.643068 271.281899 
L 175.266341 271.792568 
L 176.889614 266.533049 
L 178.512886 259.328611 
L 180.136159 248.833107 
L 181.759432 250.870058 
L 183.382705 242.339146 
L 185.005977 243.096057 
L 186.62925 242.546569 
L 188.252523 243.922055 
L 189.875795 247.237891 
L 191.499068 246.04123 
L 193.122341 245.391598 
L 194.745614 241.422121 
L 196.368886 242.91333 
L 197.992159 241.953974 
L 199.615432 241.445024 
L 201.238705 234.131081 
L 202.861977 221.738006 
L 204.48525 210.643594 
L 206.108523 204.98843 
L 207.731795 197.426718 
L 209.355068 201.83078 
L 210.978341 194.283523 
L 212.601614 194.49485 
L 214.224886 177.098919 
L 215.848159 168.592437 
L 217.471432 163.514468 
L 219.094705 150.868494 
L 220.717977 139.111168 
L 222.34125 151.48521 
L 223.964523 161.087617 
L 225.587795 172.230998 
L 227.211068 202.286561 
L 228.834341 220.409797 
L 230.457614 230.564245 
L 232.080886 236.934982 
L 233.704159 231.945696 
L 235.327432 231.541164 
L 236.950705 224.025082 
L 238.573977 220.974419 
L 240.19725 215.637747 
L 241.820523 216.795504 
L 243.443795 224.305209 
L 245.067068 229.906253 
L 246.690341 223.468816 
L 248.313614 211.954451 
L 249.936886 198.27678 
L 251.560159 196.623397 
L 253.183432 199.206888 
L 254.806705 212.990083 
L 256.429977 217.485574 
L 258.05325 216.653306 
L 259.676523 218.44956 
L 261.299795 235.095158 
L 262.923068 247.092684 
L 264.546341 244.033734 
L 266.169614 229.377511 
L 267.792886 217.990988 
L 269.416159 204.139848 
L 271.039432 201.916334 
L 272.662705 201.34716 
L 274.285977 201.900397 
L 275.90925 204.435634 
L 277.532523 210.932013 
L 279.155795 219.048089 
L 280.779068 226.269638 
L 282.402341 226.441222 
L 284.025614 211.976831 
L 285.648886 202.752263 
L 287.272159 183.975433 
L 288.895432 154.02953 
L 290.518705 157.593652 
L 292.141977 183.419351 
L 295.388523 228.239474 
L 297.011795 237.729017 
L 298.635068 228.32058 
L 300.258341 223.25842 
L 301.881614 222.002865 
L 303.504886 230.097537 
L 305.128159 243.459427 
L 306.751432 241.056952 
L 308.374705 225.247552 
L 309.997977 206.96523 
L 311.62125 197.279411 
L 313.244523 202.536264 
L 314.867795 195.29854 
L 316.491068 177.259651 
L 318.114341 182.686499 
L 319.737614 211.379845 
L 321.360886 209.894102 
L 322.984159 215.021096 
L 324.607432 207.297147 
L 326.230705 182.673991 
L 327.853977 145.745372 
L 329.47725 103.305174 
L 331.100523 104.475721 
L 332.723795 132.616254 
L 334.347068 189.032812 
L 335.970341 211.55952 
L 337.593614 195.958239 
L 339.216886 165.074966 
L 340.840159 151.562517 
L 342.463432 151.496708 
L 344.086705 106.730249 
L 345.709977 50.044432 
L 347.33325 34.414125 
L 348.956523 38.711508 
L 350.579795 46.010878 
L 352.203068 100.21368 
L 353.826341 118.524759 
L 355.449614 64.901124 
L 357.072886 58.476495 
L 358.696159 48.514164 
L 360.319432 35.745121 
L 361.942705 74.794348 
L 363.565977 96.157365 
L 365.18925 70.734284 
L 366.812523 80.123838 
L 368.435795 116.289986 
L 370.059068 139.027411 
L 371.682341 146.67987 
L 373.305614 164.713931 
L 374.928886 201.95779 
L 376.552159 204.588277 
L 378.175432 198.57618 
L 379.798705 158.062443 
L 381.421977 127.324345 
L 383.04525 148.195584 
L 384.668523 177.903833 
L 384.668523 177.903833 
" clip-path="url(#p707a7b5c73)" style="fill: none; stroke: #000000; stroke-width: 1.5; stroke-linecap: square"/>
    <defs>
     <path id="m8e3288b4fa" d="M 0 3 
C 0.795609 3 1.55874 2.683901 2.12132 2.12132 
C 2.683901 1.55874 3 0.795609 3 0 
C 3 -0.795609 2.683901 -1.55874 2.12132 -2.12132 
C 1.55874 -2.683901 0.795609 -3 0 -3 
C -0.795609 -3 -1.55874 -2.683901 -2.12132 -2.12132 
C -2.683901 -1.55874 -3 -0.795609 -3 0 
C -3 0.795609 -2.683901 1.55874 -2.12132 2.12132 
C -1.55874 2.683901 -0.795609 3 0 3 
z
" style="stroke: #000000"/>
    </defs>
    <g clip-path="url(#p707a7b5c73)">
     <use xlink:href="#m8e3288b4fa" x="60.013977" y="276.334125" style="stroke: #000000"/>
     <use xlink:href="#m8e3288b4fa" x="61.63725" y="276.334125" style="stroke: #000000"/>
     <use xlink:href="#m8e3288b4fa" x="63.260523" y="276.334125" style="stroke: #000000"/>
     <use xlink:href="#m8e3288b4fa" x="64.883795" y="276.334125" style="stroke: #000000"/>
     <use xlink:href="#m8e3288b4fa" x="66.507068" y="276.334125" style="stroke: #000000"/>
     <use xlink:href="#m8e3288b4fa" x="68.130341" y="276.334125" style="stroke: #000000"/>
     <use xlink:href="#m8e3288b4fa" x="69.753614" y="276.334125" style="stroke: #000000"/>
     <use xlink:href="#m8e3288b4fa" x="71.376886" y="276.334125" style="stroke: #000000"/>
     <use xlink:href="#m8e3288b4fa" x="73.000159" y="276.334125" style="stroke: #000000"/>
     <use xlink:href="#m8e3288b4fa" x="74.623432" y="276.334125" style="stroke: #000000"/>
     <use xlink:href="#m8e3288b4fa" x="76.246705" y="276.334125" style="stroke: #000000"/>
     <use xlink:href="#m8e3288b4fa" x="77.869977" y="276.334125" style="stroke: #000000"/>
     <use xlink:href="#m8e3288b4fa" x="79.49325" y="276.334125" style="stroke: #000000"/>
     <use xlink:href="#m8e3288b4fa" x="81.116523" y="276.334125" style="stroke: #000000"/>
     <use xlink:href="#m8e3288b4fa" x="82.739795" y="276.334125" style="stroke: #000000"/>
     <use xlink:href="#m8e3288b4fa" x="84.363068" y="276.334125" style="stroke: #000000"/>
     <use xlink:href="#m8e3288b4fa" x="85.986341" y="276.334125" style="stroke: #000000"/>
     <use xlink:href="#m8e3288b4fa" x="87.609614" y="276.334125" style="stroke: #000000"/>
     <use xlink:href="#m8e3288b4fa" x="89.232886" y="276.334125" style="stroke: #000000"/>
     <use xlink:href="#m8e3288b4fa" x="90.856159" y="276.334125" style="stroke: #000000"/>
     <use xlink:href="#m8e3288b4fa" x="92.479432" y="276.334125" style="stroke: #000000"/>
     <use xlink:href="#m8e3288b4fa" x="94.102705" y="276.334125" style="stroke: #000000"/>
     <use xlink:href="#m8e3288b4fa" x="95.725977" y="276.334125" style="stroke: #000000"/>
     <use xlink:href="#m8e3288b4fa" x="97.34925" y="276.334125" style="stroke: #000000"/>
     <use xlink:href="#m8e3288b4fa" x="98.972523" y="276.334125" style="stroke: #000000"/>
     <use xlink:href="#m8e3288b4fa" x="100.595795" y="276.334125" style="stroke: #000000"/>
     <use xlink:href="#m8e3288b4fa" x="102.219068" y="276.334125" style="stroke: #000000"/>
     <use xlink:href="#m8e3288b4fa" x="103.842341" y="276.334125" style="stroke: #000000"/>
     <use xlink:href="#m8e3288b4fa" x="105.465614" y="276.334125" style="stroke: #000000"/>
     <use xlink:href="#m8e3288b4fa" x="107.088886" y="276.334125" style="stroke: #000000"/>
     <use xlink:href="#m8e3288b4fa" x="108.712159" y="276.334125" style="stroke: #000000"/>
     <use xlink:href="#m8e3288b4fa" x="110.335432" y="276.334125" style="stroke: #000000"/>
     <use xlink:href="#m8e3288b4fa" x="111.958705" y="276.334125" style="stroke: #000000"/>
     <use xlink:href="#m8e3288b4fa" x="113.581977" y="276.334125" style="stroke: #000000"/>
     <use xlink:href="#m8e3288b4fa" x="115.20525" y="276.334125" style="stroke: #000000"/>
     <use xlink:href="#m8e3288b4fa" x="116.828523" y="276.334125" style="stroke: #000000"/>
     <use xlink:href="#m8e3288b4fa" x="118.451795" y="276.334125" style="stroke: #000000"/>
     <use xlink:href="#m8e3288b4fa" x="120.075068" y="276.334125" style="stroke: #000000"/>
     <use xlink:href="#m8e3288b4fa" x="121.698341" y="276.334125" style="stroke: #000000"/>
     <use xlink:href="#m8e3288b4fa" x="123.321614" y="276.334125" style="stroke: #000000"/>
     <use xlink:href="#m8e3288b4fa" x="124.944886" y="276.334125" style="stroke: #000000"/>
     <use xlink:href="#m8e3288b4fa" x="126.568159" y="276.334125" style="stroke: #000000"/>
     <use xlink:href="#m8e3288b4fa" x="128.191432" y="276.334125" style="stroke: #000000"/>
     <use xlink:href="#m8e3288b4fa" x="129.814705" y="276.334125" style="stroke: #000000"/>
     <use xlink:href="#m8e3288b4fa" x="131.437977" y="276.334125" style="stroke: #000000"/>
     <use xlink:href="#m8e3288b4fa" x="133.06125" y="276.334125" style="stroke: #000000"/>
     <use xlink:href="#m8e3288b4fa" x="134.684523" y="276.334125" style="stroke: #000000"/>
     <use xlink:href="#m8e3288b4fa" x="136.307795" y="274.065839" style="stroke: #000000"/>
     <use xlink:href="#m8e3288b4fa" x="137.931068" y="272.690952" style="stroke: #000000"/>
     <use xlink:href="#m8e3288b4fa" x="139.554341" y="270.145121" style="stroke: #000000"/>
     <use xlink:href="#m8e3288b4fa" x="141.177614" y="267.68676" style="stroke: #000000"/>
     <use xlink:href="#m8e3288b4fa" x="142.800886" y="265.219501" style="stroke: #000000"/>
     <use xlink:href="#m8e3288b4fa" x="144.424159" y="262.871375" style="stroke: #000000"/>
     <use xlink:href="#m8e3288b4fa" x="146.047432" y="261.614906" style="stroke: #000000"/>
     <use xlink:href="#m8e3288b4fa" x="147.670705" y="263.359471" style="stroke: #000000"/>
     <use xlink:href="#m8e3288b4fa" x="149.293977" y="264.541737" style="stroke: #000000"/>
     <use xlink:href="#m8e3288b4fa" x="150.91725" y="268.349918" style="stroke: #000000"/>
     <use xlink:href="#m8e3288b4fa" x="152.540523" y="272.581581" style="stroke: #000000"/>
     <use xlink:href="#m8e3288b4fa" x="154.163795" y="276.299241" style="stroke: #000000"/>
     <use xlink:href="#m8e3288b4fa" x="155.787068" y="276.334125" style="stroke: #000000"/>
     <use xlink:href="#m8e3288b4fa" x="157.410341" y="276.334125" style="stroke: #000000"/>
     <use xlink:href="#m8e3288b4fa" x="159.033614" y="276.334125" style="stroke: #000000"/>
     <use xlink:href="#m8e3288b4fa" x="160.656886" y="276.334125" style="stroke: #000000"/>
     <use xlink:href="#m8e3288b4fa" x="162.280159" y="276.334125" style="stroke: #000000"/>
     <use xlink:href="#m8e3288b4fa" x="163.903432" y="276.334125" style="stroke: #000000"/>
     <use xlink:href="#m8e3288b4fa" x="165.526705" y="276.334125" style="stroke: #000000"/>
     <use xlink:href="#m8e3288b4fa" x="167.149977" y="276.230197" style="stroke: #000000"/>
     <use xlink:href="#m8e3288b4fa" x="168.77325" y="273.326112" style="stroke: #000000"/>
     <use xlink:href="#m8e3288b4fa" x="170.396523" y="269.113101" style="stroke: #000000"/>
     <use xlink:href="#m8e3288b4fa" x="172.019795" y="271.401061" style="stroke: #000000"/>
     <use xlink:href="#m8e3288b4fa" x="173.643068" y="271.281899" style="stroke: #000000"/>
     <use xlink:href="#m8e3288b4fa" x="175.266341" y="271.792568" style="stroke: #000000"/>
     <use xlink:href="#m8e3288b4fa" x="176.889614" y="266.533049" style="stroke: #000000"/>
     <use xlink:href="#m8e3288b4fa" x="178.512886" y="259.328611" style="stroke: #000000"/>
     <use xlink:href="#m8e3288b4fa" x="180.136159" y="248.833107" style="stroke: #000000"/>
     <use xlink:href="#m8e3288b4fa" x="181.759432" y="250.870058" style="stroke: #000000"/>
     <use xlink:href="#m8e3288b4fa" x="183.382705" y="242.339146" style="stroke: #000000"/>
     <use xlink:href="#m8e3288b4fa" x="185.005977" y="243.096057" style="stroke: #000000"/>
     <use xlink:href="#m8e3288b4fa" x="186.62925" y="242.546569" style="stroke: #000000"/>
     <use xlink:href="#m8e3288b4fa" x="188.252523" y="243.922055" style="stroke: #000000"/>
     <use xlink:href="#m8e3288b4fa" x="189.875795" y="247.237891" style="stroke: #000000"/>
     <use xlink:href="#m8e3288b4fa" x="191.499068" y="246.04123" style="stroke: #000000"/>
     <use xlink:href="#m8e3288b4fa" x="193.122341" y="245.391598" style="stroke: #000000"/>
     <use xlink:href="#m8e3288b4fa" x="194.745614" y="241.422121" style="stroke: #000000"/>
     <use xlink:href="#m8e3288b4fa" x="196.368886" y="242.91333" style="stroke: #000000"/>
     <use xlink:href="#m8e3288b4fa" x="197.992159" y="241.953974" style="stroke: #000000"/>
     <use xlink:href="#m8e3288b4fa" x="199.615432" y="241.445024" style="stroke: #000000"/>
     <use xlink:href="#m8e3288b4fa" x="201.238705" y="234.131081" style="stroke: #000000"/>
     <use xlink:href="#m8e3288b4fa" x="202.861977" y="221.738006" style="stroke: #000000"/>
     <use xlink:href="#m8e3288b4fa" x="204.48525" y="210.643594" style="stroke: #000000"/>
     <use xlink:href="#m8e3288b4fa" x="206.108523" y="204.98843" style="stroke: #000000"/>
     <use xlink:href="#m8e3288b4fa" x="207.731795" y="197.426718" style="stroke: #000000"/>
     <use xlink:href="#m8e3288b4fa" x="209.355068" y="201.83078" style="stroke: #000000"/>
     <use xlink:href="#m8e3288b4fa" x="210.978341" y="194.283523" style="stroke: #000000"/>
     <use xlink:href="#m8e3288b4fa" x="212.601614" y="194.49485" style="stroke: #000000"/>
     <use xlink:href="#m8e3288b4fa" x="214.224886" y="177.098919" style="stroke: #000000"/>
     <use xlink:href="#m8e3288b4fa" x="215.848159" y="168.592437" style="stroke: #000000"/>
     <use xlink:href="#m8e3288b4fa" x="217.471432" y="163.514468" style="stroke: #000000"/>
     <use xlink:href="#m8e3288b4fa" x="219.094705" y="150.868494" style="stroke: #000000"/>
     <use xlink:href="#m8e3288b4fa" x="220.717977" y="139.111168" style="stroke: #000000"/>
     <use xlink:href="#m8e3288b4fa" x="222.34125" y="151.48521" style="stroke: #000000"/>
     <use xlink:href="#m8e3288b4fa" x="223.964523" y="161.087617" style="stroke: #000000"/>
     <use xlink:href="#m8e3288b4fa" x="225.587795" y="172.230998" style="stroke: #000000"/>
     <use xlink:href="#m8e3288b4fa" x="227.211068" y="202.286561" style="stroke: #000000"/>
     <use xlink:href="#m8e3288b4fa" x="228.834341" y="220.409797" style="stroke: #000000"/>
     <use xlink:href="#m8e3288b4fa" x="230.457614" y="230.564245" style="stroke: #000000"/>
     <use xlink:href="#m8e3288b4fa" x="232.080886" y="236.934982" style="stroke: #000000"/>
     <use xlink:href="#m8e3288b4fa" x="233.704159" y="231.945696" style="stroke: #000000"/>
     <use xlink:href="#m8e3288b4fa" x="235.327432" y="231.541164" style="stroke: #000000"/>
     <use xlink:href="#m8e3288b4fa" x="236.950705" y="224.025082" style="stroke: #000000"/>
     <use xlink:href="#m8e3288b4fa" x="238.573977" y="220.974419" style="stroke: #000000"/>
     <use xlink:href="#m8e3288b4fa" x="240.19725" y="215.637747" style="stroke: #000000"/>
     <use xlink:href="#m8e3288b4fa" x="241.820523" y="216.795504" style="stroke: #000000"/>
     <use xlink:href="#m8e3288b4fa" x="243.443795" y="224.305209" style="stroke: #000000"/>
     <use xlink:href="#m8e3288b4fa" x="245.067068" y="229.906253" style="stroke: #000000"/>
     <use xlink:href="#m8e3288b4fa" x="246.690341" y="223.468816" style="stroke: #000000"/>
     <use xlink:href="#m8e3288b4fa" x="248.313614" y="211.954451" style="stroke: #000000"/>
     <use xlink:href="#m8e3288b4fa" x="249.936886" y="198.27678" style="stroke: #000000"/>
     <use xlink:href="#m8e3288b4fa" x="251.560159" y="196.623397" style="stroke: #000000"/>
     <use xlink:href="#m8e3288b4fa" x="253.183432" y="199.206888" style="stroke: #000000"/>
     <use xlink:href="#m8e3288b4fa" x="254.806705" y="212.990083" style="stroke: #000000"/>
     <use xlink:href="#m8e3288b4fa" x="256.429977" y="217.485574" style="stroke: #000000"/>
     <use xlink:href="#m8e3288b4fa" x="258.05325" y="216.653306" style="stroke: #000000"/>
     <use xlink:href="#m8e3288b4fa" x="259.676523" y="218.44956" style="stroke: #000000"/>
     <use xlink:href="#m8e3288b4fa" x="261.299795" y="235.095158" style="stroke: #000000"/>
     <use xlink:href="#m8e3288b4fa" x="262.923068" y="247.092684" style="stroke: #000000"/>
     <use xlink:href="#m8e3288b4fa" x="264.546341" y="244.033734" style="stroke: #000000"/>
     <use xlink:href="#m8e3288b4fa" x="266.169614" y="229.377511" style="stroke: #000000"/>
     <use xlink:href="#m8e3288b4fa" x="267.792886" y="217.990988" style="stroke: #000000"/>
     <use xlink:href="#m8e3288b4fa" x="269.416159" y="204.139848" style="stroke: #000000"/>
     <use xlink:href="#m8e3288b4fa" x="271.039432" y="201.916334" style="stroke: #000000"/>
     <use xlink:href="#m8e3288b4fa" x="272.662705" y="201.34716" style="stroke: #000000"/>
     <use xlink:href="#m8e3288b4fa" x="274.285977" y="201.900397" style="stroke: #000000"/>
     <use xlink:href="#m8e3288b4fa" x="275.90925" y="204.435634" style="stroke: #000000"/>
     <use xlink:href="#m8e3288b4fa" x="277.532523" y="210.932013" style="stroke: #000000"/>
     <use xlink:href="#m8e3288b4fa" x="279.155795" y="219.048089" style="stroke: #000000"/>
     <use xlink:href="#m8e3288b4fa" x="280.779068" y="226.269638" style="stroke: #000000"/>
     <use xlink:href="#m8e3288b4fa" x="282.402341" y="226.441222" style="stroke: #000000"/>
     <use xlink:href="#m8e3288b4fa" x="284.025614" y="211.976831" style="stroke: #000000"/>
     <use xlink:href="#m8e3288b4fa" x="285.648886" y="202.752263" style="stroke: #000000"/>
     <use xlink:href="#m8e3288b4fa" x="287.272159" y="183.975433" style="stroke: #000000"/>
     <use xlink:href="#m8e3288b4fa" x="288.895432" y="154.02953" style="stroke: #000000"/>
     <use xlink:href="#m8e3288b4fa" x="290.518705" y="157.593652" style="stroke: #000000"/>
     <use xlink:href="#m8e3288b4fa" x="292.141977" y="183.419351" style="stroke: #000000"/>
     <use xlink:href="#m8e3288b4fa" x="293.76525" y="206.524425" style="stroke: #000000"/>
     <use xlink:href="#m8e3288b4fa" x="295.388523" y="228.239474" style="stroke: #000000"/>
     <use xlink:href="#m8e3288b4fa" x="297.011795" y="237.729017" style="stroke: #000000"/>
     <use xlink:href="#m8e3288b4fa" x="298.635068" y="228.32058" style="stroke: #000000"/>
     <use xlink:href="#m8e3288b4fa" x="300.258341" y="223.25842" style="stroke: #000000"/>
     <use xlink:href="#m8e3288b4fa" x="301.881614" y="222.002865" style="stroke: #000000"/>
     <use xlink:href="#m8e3288b4fa" x="303.504886" y="230.097537" style="stroke: #000000"/>
     <use xlink:href="#m8e3288b4fa" x="305.128159" y="243.459427" style="stroke: #000000"/>
     <use xlink:href="#m8e3288b4fa" x="306.751432" y="241.056952" style="stroke: #000000"/>
     <use xlink:href="#m8e3288b4fa" x="308.374705" y="225.247552" style="stroke: #000000"/>
     <use xlink:href="#m8e3288b4fa" x="309.997977" y="206.96523" style="stroke: #000000"/>
     <use xlink:href="#m8e3288b4fa" x="311.62125" y="197.279411" style="stroke: #000000"/>
     <use xlink:href="#m8e3288b4fa" x="313.244523" y="202.536264" style="stroke: #000000"/>
     <use xlink:href="#m8e3288b4fa" x="314.867795" y="195.29854" style="stroke: #000000"/>
     <use xlink:href="#m8e3288b4fa" x="316.491068" y="177.259651" style="stroke: #000000"/>
     <use xlink:href="#m8e3288b4fa" x="318.114341" y="182.686499" style="stroke: #000000"/>
     <use xlink:href="#m8e3288b4fa" x="319.737614" y="211.379845" style="stroke: #000000"/>
     <use xlink:href="#m8e3288b4fa" x="321.360886" y="209.894102" style="stroke: #000000"/>
     <use xlink:href="#m8e3288b4fa" x="322.984159" y="215.021096" style="stroke: #000000"/>
     <use xlink:href="#m8e3288b4fa" x="324.607432" y="207.297147" style="stroke: #000000"/>
     <use xlink:href="#m8e3288b4fa" x="326.230705" y="182.673991" style="stroke: #000000"/>
     <use xlink:href="#m8e3288b4fa" x="327.853977" y="145.745372" style="stroke: #000000"/>
     <use xlink:href="#m8e3288b4fa" x="329.47725" y="103.305174" style="stroke: #000000"/>
     <use xlink:href="#m8e3288b4fa" x="331.100523" y="104.475721" style="stroke: #000000"/>
     <use xlink:href="#m8e3288b4fa" x="332.723795" y="132.616254" style="stroke: #000000"/>
     <use xlink:href="#m8e3288b4fa" x="334.347068" y="189.032812" style="stroke: #000000"/>
     <use xlink:href="#m8e3288b4fa" x="335.970341" y="211.55952" style="stroke: #000000"/>
     <use xlink:href="#m8e3288b4fa" x="337.593614" y="195.958239" style="stroke: #000000"/>
     <use xlink:href="#m8e3288b4fa" x="339.216886" y="165.074966" style="stroke: #000000"/>
     <use xlink:href="#m8e3288b4fa" x="340.840159" y="151.562517" style="stroke: #000000"/>
     <use xlink:href="#m8e3288b4fa" x="342.463432" y="151.496708" style="stroke: #000000"/>
     <use xlink:href="#m8e3288b4fa" x="344.086705" y="106.730249" style="stroke: #000000"/>
     <use xlink:href="#m8e3288b4fa" x="345.709977" y="50.044432" style="stroke: #000000"/>
     <use xlink:href="#m8e3288b4fa" x="347.33325" y="34.414125" style="stroke: #000000"/>
     <use xlink:href="#m8e3288b4fa" x="348.956523" y="38.711508" style="stroke: #000000"/>
     <use xlink:href="#m8e3288b4fa" x="350.579795" y="46.010878" style="stroke: #000000"/>
     <use xlink:href="#m8e3288b4fa" x="352.203068" y="100.21368" style="stroke: #000000"/>
     <use xlink:href="#m8e3288b4fa" x="353.826341" y="118.524759" style="stroke: #000000"/>
     <use xlink:href="#m8e3288b4fa" x="355.449614" y="64.901124" style="stroke: #000000"/>
     <use xlink:href="#m8e3288b4fa" x="357.072886" y="58.476495" style="stroke: #000000"/>
     <use xlink:href="#m8e3288b4fa" x="358.696159" y="48.514164" style="stroke: #000000"/>
     <use xlink:href="#m8e3288b4fa" x="360.319432" y="35.745121" style="stroke: #000000"/>
     <use xlink:href="#m8e3288b4fa" x="361.942705" y="74.794348" style="stroke: #000000"/>
     <use xlink:href="#m8e3288b4fa" x="363.565977" y="96.157365" style="stroke: #000000"/>
     <use xlink:href="#m8e3288b4fa" x="365.18925" y="70.734284" style="stroke: #000000"/>
     <use xlink:href="#m8e3288b4fa" x="366.812523" y="80.123838" style="stroke: #000000"/>
     <use xlink:href="#m8e3288b4fa" x="368.435795" y="116.289986" style="stroke: #000000"/>
     <use xlink:href="#m8e3288b4fa" x="370.059068" y="139.027411" style="stroke: #000000"/>
     <use xlink:href="#m8e3288b4fa" x="371.682341" y="146.67987" style="stroke: #000000"/>
     <use xlink:href="#m8e3288b4fa" x="373.305614" y="164.713931" style="stroke: #000000"/>
     <use xlink:href="#m8e3288b4fa" x="374.928886" y="201.95779" style="stroke: #000000"/>
     <use xlink:href="#m8e3288b4fa" x="376.552159" y="204.588277" style="stroke: #000000"/>
     <use xlink:href="#m8e3288b4fa" x="378.175432" y="198.57618" style="stroke: #000000"/>
     <use xlink:href="#m8e3288b4fa" x="379.798705" y="158.062443" style="stroke: #000000"/>
     <use xlink:href="#m8e3288b4fa" x="381.421977" y="127.324345" style="stroke: #000000"/>
     <use xlink:href="#m8e3288b4fa" x="383.04525" y="148.195584" style="stroke: #000000"/>
     <use xlink:href="#m8e3288b4fa" x="384.668523" y="177.903833" style="stroke: #000000"/>
    </g>
   </g>
   <g id="patch_3">
    <path d="M 43.78125 288.430125 
L 43.78125 22.318125 
" style="fill: none; stroke: #000000; stroke-width: 0.8; stroke-linejoin: miter; stroke-linecap: square"/>
   </g>
   <g id="patch_4">
    <path d="M 400.90125 288.430125 
L 400.90125 22.318125 
" style="fill: none; stroke: #000000; stroke-width: 0.8; stroke-linejoin: miter; stroke-linecap: square"/>
   </g>
   <g id="patch_5">
    <path d="M 43.78125 288.430125 
L 400.90125 288.430125 
" style="fill: none; stroke: #000000; stroke-width: 0.8; stroke-linejoin: miter; stroke-linecap: square"/>
   </g>
   <g id="patch_6">
    <path d="M 43.78125 22.318125 
L 400.90125 22.318125 
" style="fill: none; stroke: #000000; stroke-width: 0.8; stroke-linejoin: miter; stroke-linecap: square"/>
   </g>
   <g id="text_15">
    <!-- Current vs Power - Channel 2 -->
    <g transform="translate(134.84625 16.318125) scale(0.12 -0.12)">
     <defs>
      <path id="DejaVuSans-76" d="M 191 3500 
L 800 3500 
L 1894 563 
L 2988 3500 
L 3597 3500 
L 2284 0 
L 1503 0 
L 191 3500 
z
" transform="scale(0.015625)"/>
      <path id="DejaVuSans-73" d="M 2834 3397 
L 2834 2853 
Q 2591 2978 2328 3040 
Q 2066 3103 1784 3103 
Q 1356 3103 1142 2972 
Q 928 2841 928 2578 
Q 928 2378 1081 2264 
Q 1234 2150 1697 2047 
L 1894 2003 
Q 2506 1872 2764 1633 
Q 3022 1394 3022 966 
Q 3022 478 2636 193 
Q 2250 -91 1575 -91 
Q 1294 -91 989 -36 
Q 684 19 347 128 
L 347 722 
Q 666 556 975 473 
Q 1284 391 1588 391 
Q 1994 391 2212 530 
Q 2431 669 2431 922 
Q 2431 1156 2273 1281 
Q 2116 1406 1581 1522 
L 1381 1569 
Q 847 1681 609 1914 
Q 372 2147 372 2553 
Q 372 3047 722 3315 
Q 1072 3584 1716 3584 
Q 2034 3584 2315 3537 
Q 2597 3491 2834 3397 
z
" transform="scale(0.015625)"/>
      <path id="DejaVuSans-2d" d="M 313 2009 
L 1997 2009 
L 1997 1497 
L 313 1497 
L 313 2009 
z
" transform="scale(0.015625)"/>
      <path id="DejaVuSans-68" d="M 3513 2113 
L 3513 0 
L 2938 0 
L 2938 2094 
Q 2938 2591 2744 2837 
Q 2550 3084 2163 3084 
Q 1697 3084 1428 2787 
Q 1159 2491 1159 1978 
L 1159 0 
L 581 0 
L 581 4863 
L 1159 4863 
L 1159 2956 
Q 1366 3272 1645 3428 
Q 1925 3584 2291 3584 
Q 2894 3584 3203 3211 
Q 3513 2838 3513 2113 
z
" transform="scale(0.015625)"/>
      <path id="DejaVuSans-61" d="M 2194 1759 
Q 1497 1759 1228 1600 
Q 959 1441 959 1056 
Q 959 750 1161 570 
Q 1363 391 1709 391 
Q 2188 391 2477 730 
Q 2766 1069 2766 1631 
L 2766 1759 
L 2194 1759 
z
M 3341 1997 
L 3341 0 
L 2766 0 
L 2766 531 
Q 2569 213 2275 61 
Q 1981 -91 1556 -91 
Q 1019 -91 701 211 
Q 384 513 384 1019 
Q 384 1609 779 1909 
Q 1175 2209 1959 2209 
L 2766 2209 
L 2766 2266 
Q 2766 2663 2505 2880 
Q 2244 3097 1772 3097 
Q 1472 3097 1187 3025 
Q 903 2953 641 2809 
L 641 3341 
Q 956 3463 1253 3523 
Q 1550 3584 1831 3584 
Q 2591 3584 2966 3190 
Q 3341 2797 3341 1997 
z
" transform="scale(0.015625)"/>
      <path id="DejaVuSans-6c" d="M 603 4863 
L 1178 4863 
L 1178 0 
L 603 0 
L 603 4863 
z
" transform="scale(0.015625)"/>
     </defs>
     <use xlink:href="#DejaVuSans-43"/>
     <use xlink:href="#DejaVuSans-75" x="69.824219"/>
     <use xlink:href="#DejaVuSans-72" x="133.203125"/>
     <use xlink:href="#DejaVuSans-72" x="172.566406"/>
     <use xlink:href="#DejaVuSans-65" x="211.429688"/>
     <use xlink:href="#DejaVuSans-6e" x="272.953125"/>
     <use xlink:href="#DejaVuSans-74" x="336.332031"/>
     <use xlink:href="#DejaVuSans-20" x="375.541016"/>
     <use xlink:href="#DejaVuSans-76" x="407.328125"/>
     <use xlink:href="#DejaVuSans-73" x="466.507812"/>
     <use xlink:href="#DejaVuSans-20" x="518.607422"/>
     <use xlink:href="#DejaVuSans-50" x="550.394531"/>
     <use xlink:href="#DejaVuSans-6f" x="607.072266"/>
     <use xlink:href="#DejaVuSans-77" x="668.253906"/>
     <use xlink:href="#DejaVuSans-65" x="750.041016"/>
     <use xlink:href="#DejaVuSans-72" x="811.564453"/>
     <use xlink:href="#DejaVuSans-20" x="852.677734"/>
     <use xlink:href="#DejaVuSans-2d" x="884.464844"/>
     <use xlink:href="#DejaVuSans-20" x="920.548828"/>
     <use xlink:href="#DejaVuSans-43" x="952.335938"/>
     <use xlink:href="#DejaVuSans-68" x="1022.160156"/>
     <use xlink:href="#DejaVuSans-61" x="1085.539062"/>
     <use xlink:href="#DejaVuSans-6e" x="1146.818359"/>
     <use xlink:href="#DejaVuSans-6e" x="1210.197266"/>
     <use xlink:href="#DejaVuSans-65" x="1273.576172"/>
     <use xlink:href="#DejaVuSans-6c" x="1335.099609"/>
     <use xlink:href="#DejaVuSans-20" x="1362.882812"/>
     <use xlink:href="#DejaVuSans-32" x="1394.669922"/>
    </g>
   </g>
  </g>
 </g>
 <defs>
  <clipPath id="p707a7b5c73">
   <rect x="43.78125" y="22.318125" width="357.12" height="266.112"/>
  </clipPath>
 </defs>
</svg>
